# Created by FreeCAD <https://www.freecad.org>
v -5.125000 -7.125000 -2.250000
v 7.125000 -7.125000 -2.250000
v -5.125000 -8.000000 -2.250000
v -8.000000 -8.000000 -2.250000
v -8.000000 8.000000 -2.250000
v -7.125000 7.125000 -2.250000
v 8.000000 -8.000000 -2.250000
v 7.125000 7.125000 -2.250000
v 8.000000 8.000000 -2.250000
v -7.125000 -8.000000 -2.250000
v -8.000000 8.000000 6.000000
v -8.000000 -8.000000 6.000000
v 1.500000 -6.500000 5.000000
v 6.500000 -6.500000 5.000000
v 7.125000 -7.125000 5.000000
v 6.500000 -1.500000 5.000000
v 1.414214 -1.414214 5.000000
v 3.400000 -0.750000 5.000000
v 0.750000 -3.400000 5.000000
v 1.667537 -1.104228 5.000000
v 1.104228 -1.667537 5.000000
v 3.400000 0.750000 5.000000
v -0.750000 -3.400000 5.000000
v 0.750000 -1.854050 5.000000
v 1.854050 -0.750000 5.000000
v -5.125000 -7.125000 5.000000
v -7.125000 -8.000000 5.000000
v -5.125000 -8.000000 5.000000
v 1.667537 1.104228 5.000000
v 1.854050 0.750000 5.000000
v -1.104228 -1.667537 5.000000
v -0.750000 -1.854050 5.000000
v 7.125000 7.125000 5.000000
v 1.414214 1.414214 5.000000
v -1.414214 -1.414214 5.000000
v 0.750000 3.400000 5.000000
v 1.104228 1.667537 5.000000
v 0.750000 1.854050 5.000000
v -3.400000 -0.750000 5.000000
v -1.854050 -0.750000 5.000000
v -1.667537 -1.104228 5.000000
v -0.750000 3.400000 5.000000
v -0.750000 1.854050 5.000000
v -1.104228 1.667537 5.000000
v -1.414214 1.414214 5.000000
v -3.400000 0.750000 5.000000
v -1.667537 1.104228 5.000000
v -1.854050 0.750000 5.000000
v -6.125000 6.125000 5.000000
v -6.125000 7.125000 5.000000
v -7.125000 6.125000 5.000000
v 6.500000 -6.500000 6.000000
v 6.500000 -1.500000 6.000000
v -0.750000 -3.400000 6.000000
v 1.500000 -6.500000 6.000000
v -3.400000 -0.750000 6.000000
v -1.414214 -1.414214 6.000000
v -1.667537 -1.104228 6.000000
v -1.104228 -1.667537 6.000000
v 0.750000 -3.400000 6.000000
v -1.854050 -0.750000 6.000000
v -0.750000 -1.854050 6.000000
v -7.125000 6.125000 6.000000
v -3.400000 0.750000 6.000000
v -1.667537 1.104228 6.000000
v -1.854050 0.750000 6.000000
v 1.104228 -1.667537 6.000000
v 0.750000 -1.854050 6.000000
v -6.125000 6.125000 6.000000
v -7.125000 7.125000 6.000000
v 8.000000 -8.000000 6.000000
v 1.414214 -1.414214 6.000000
v -1.414214 1.414214 6.000000
v -6.125000 7.125000 6.000000
v 3.400000 -0.750000 6.000000
v 1.667537 -1.104228 6.000000
v 1.854050 -0.750000 6.000000
v -0.750000 3.400000 6.000000
v -1.104228 1.667537 6.000000
v -0.750000 1.854050 6.000000
v 0.750000 3.400000 6.000000
v 1.104228 1.667537 6.000000
v 1.414214 1.414214 6.000000
v 0.750000 1.854050 6.000000
v 3.400000 0.750000 6.000000
v 1.667537 1.104228 6.000000
v 1.854050 0.750000 6.000000
v 8.000000 8.000000 6.000000
vn 0.000000 0.000000 -1.000000
vn 0.000000 0.000000 -1.000000
vn 0.000000 -0.000000 -1.000000
vn 0.000000 0.000000 -1.000000
vn 0.000000 0.000000 -1.000000
vn 0.000000 0.000000 -1.000000
vn 0.000000 0.000000 -1.000000
vn 0.000000 -0.000000 -1.000000
vn -1.000000 0.000000 0.000000
vn -1.000000 0.000000 0.000000
vn 0.000000 0.000000 -1.000000
vn 0.000000 0.000000 -1.000000
vn 0.000000 -0.000000 -1.000000
vn 0.000000 -0.000000 -1.000000
vn 0.000000 -0.000000 -1.000000
vn 0.000000 0.000000 -1.000000
vn 0.000000 0.000000 -1.000000
vn 0.000000 0.000000 -1.000000
vn 0.000000 -0.000000 -1.000000
vn 0.000000 0.000000 -1.000000
vn 0.000000 0.000000 -1.000000
vn 0.000000 0.000000 -1.000000
vn 0.000000 0.000000 -1.000000
vn 0.000000 0.000000 -1.000000
vn 0.000000 0.000000 -1.000000
vn 0.000000 0.000000 -1.000000
vn 0.000000 0.000000 -1.000000
vn 0.000000 0.000000 -1.000000
vn 0.000000 0.000000 -1.000000
vn 0.000000 0.000000 -1.000000
vn 0.000000 0.000000 -1.000000
vn 0.000000 0.000000 -1.000000
vn 0.000000 0.000000 -1.000000
vn 0.000000 -0.000000 -1.000000
vn 0.000000 0.000000 -1.000000
vn 0.000000 -0.000000 -1.000000
vn 0.000000 0.000000 -1.000000
vn 0.000000 0.000000 -1.000000
vn 0.000000 0.000000 -1.000000
vn 0.000000 0.000000 -1.000000
vn 0.000000 0.000000 -1.000000
vn 0.000000 0.000000 -1.000000
vn 0.000000 0.000000 -1.000000
vn 0.000000 0.000000 -1.000000
vn 0.000000 0.000000 -1.000000
vn 0.000000 0.000000 -1.000000
vn 0.000000 0.000000 -1.000000
vn 0.000000 -0.000000 -1.000000
vn 0.000000 0.000000 -1.000000
vn -0.000000 0.000000 -1.000000
vn 0.000000 0.000000 -1.000000
vn -1.000000 0.000000 0.000000
vn -1.000000 0.000000 0.000000
vn 0.000000 0.000000 1.000000
vn 0.000000 0.000000 1.000000
vn 0.000000 0.000000 1.000000
vn 0.000000 0.000000 1.000000
vn 0.000000 0.000000 1.000000
vn 0.000000 0.000000 1.000000
vn 0.000000 0.000000 1.000000
vn 0.000000 0.000000 1.000000
vn 0.000000 0.000000 1.000000
vn 0.000000 0.000000 1.000000
vn 0.000000 0.000000 1.000000
vn 0.000000 0.000000 1.000000
vn 0.000000 0.000000 1.000000
vn 0.000000 0.000000 1.000000
vn 0.000000 0.000000 1.000000
vn 0.000000 0.000000 1.000000
vn 0.000000 0.000000 1.000000
vn 0.000000 0.000000 1.000000
vn 0.000000 0.000000 1.000000
vn 0.000000 0.000000 1.000000
vn 0.000000 0.000000 1.000000
vn 0.000000 0.000000 1.000000
vn 0.000000 0.000000 1.000000
vn 0.000000 0.000000 1.000000
vn 0.000000 0.000000 1.000000
vn 0.000000 0.000000 1.000000
vn 0.000000 0.000000 1.000000
vn 0.000000 0.000000 1.000000
vn 0.000000 0.000000 1.000000
vn 0.000000 0.000000 1.000000
vn 0.000000 0.000000 1.000000
vn 0.000000 0.000000 1.000000
vn 0.000000 0.000000 1.000000
vn 0.000000 0.000000 1.000000
vn 0.000000 0.000000 1.000000
vn 0.000000 0.000000 1.000000
vn 0.000000 0.000000 1.000000
vn 0.000000 0.000000 1.000000
vn 0.000000 0.000000 1.000000
vn 0.000000 0.000000 1.000000
vn 0.000000 0.000000 1.000000
vn 0.000000 0.000000 1.000000
vn 0.000000 -0.000000 1.000000
vn 0.707107 -0.707107 0.000000
vn 0.707107 -0.707107 0.000000
vn 0.000000 1.000000 0.000000
vn 0.000000 1.000000 -0.000000
vn 1.000000 0.000000 0.000000
vn 1.000000 0.000000 0.000000
vn -0.000000 1.000000 0.000000
vn 0.000000 1.000000 0.000000
vn 0.884840 0.465896 -0.000000
vn 0.774325 0.632788 -0.000000
vn 0.884840 0.465896 0.000000
vn 0.632788 0.774325 -0.000000
vn 0.774325 0.632788 0.000000
vn 0.465896 0.884840 -0.000000
vn 0.632788 0.774325 0.000000
vn 0.465896 0.884840 0.000000
vn 1.000000 0.000000 0.000000
vn 1.000000 0.000000 0.000000
vn -0.000000 1.000000 0.000000
vn 0.000000 1.000000 0.000000
vn -1.000000 0.000000 0.000000
vn -1.000000 0.000000 0.000000
vn -0.465896 0.884840 0.000000
vn -0.632788 0.774325 0.000000
vn -0.465896 0.884840 0.000000
vn -0.774325 0.632788 0.000000
vn -0.632788 0.774325 0.000000
vn -0.774325 0.632788 0.000000
vn -0.884840 0.465896 0.000000
vn -0.884840 0.465896 0.000000
vn -0.000000 1.000000 0.000000
vn 0.000000 1.000000 0.000000
vn -1.000000 0.000000 0.000000
vn -1.000000 0.000000 0.000000
vn -0.000000 -1.000000 -0.000000
vn 0.000000 -1.000000 0.000000
vn -0.884840 -0.465896 0.000000
vn -0.774325 -0.632788 0.000000
vn -0.884840 -0.465896 0.000000
vn -0.774325 -0.632788 0.000000
vn -0.632788 -0.774325 0.000000
vn -0.632788 -0.774325 -0.000000
vn -0.465896 -0.884840 0.000000
vn -0.465896 -0.884840 -0.000000
vn -1.000000 0.000000 0.000000
vn -1.000000 0.000000 0.000000
vn -0.000000 -1.000000 -0.000000
vn 0.000000 -1.000000 0.000000
vn 1.000000 0.000000 0.000000
vn 1.000000 0.000000 0.000000
vn 0.465896 -0.884840 0.000000
vn 0.465896 -0.884840 0.000000
vn 0.632788 -0.774325 0.000000
vn 0.632788 -0.774325 0.000000
vn 0.774325 -0.632788 0.000000
vn 0.774325 -0.632788 0.000000
vn 0.884840 -0.465896 0.000000
vn 0.884840 -0.465896 0.000000
vn -0.000000 -1.000000 -0.000000
vn 0.000000 -1.000000 0.000000
vn -1.000000 0.000000 0.000000
vn -1.000000 -0.000000 0.000000
vn 0.000000 1.000000 -0.000000
vn 0.000000 1.000000 0.000000
vn 0.000000 1.000000 0.000000
vn 0.000000 1.000000 0.000000
vn 0.000000 -1.000000 0.000000
vn 0.000000 -1.000000 0.000000
vn 0.000000 -1.000000 0.000000
vn 0.000000 -1.000000 0.000000
vn 0.000000 -1.000000 0.000000
vn -0.000000 -1.000000 0.000000
vn 1.000000 0.000000 0.000000
vn 1.000000 -0.000000 0.000000
vn 1.000000 -0.000000 0.000000
vn 1.000000 -0.000000 0.000000
vn 1.000000 0.000000 0.000000
vn 1.000000 -0.000000 0.000000
vn -1.000000 0.000000 0.000000
vn -1.000000 0.000000 0.000000
vn 0.000000 -1.000000 0.000000
vn 0.000000 -1.000000 0.000000
vn 0.000000 -1.000000 0.000000
vn 0.000000 -1.000000 0.000000
vn 0.000000 1.000000 0.000000
vn 0.000000 1.000000 0.000000
vn -1.000000 0.000000 0.000000
vn -1.000000 0.000000 0.000000
f 1//1 2//1 3//1
f 4//2 5//2 6//2
f 2//3 7//3 3//3
f 2//4 8//4 7//4
f 8//5 9//5 7//5
f 5//6 9//6 6//6
f 6//7 9//7 8//7
f 6//8 10//8 4//8
f 4//9 11//9 5//9
f 4//10 12//10 11//10
f 13//11 14//11 15//11
f 16//12 15//12 14//12
f 17//13 18//13 19//13
f 20//14 18//14 17//14
f 21//15 17//15 19//15
f 22//16 16//16 18//16
f 23//17 19//17 13//17
f 24//18 21//18 19//18
f 25//19 18//19 20//19
f 26//20 23//20 13//20
f 27//21 26//21 28//21
f 29//22 22//22 30//22
f 31//23 32//23 23//23
f 33//24 16//24 22//24
f 34//25 22//25 29//25
f 35//26 31//26 23//26
f 36//27 34//27 37//27
f 36//28 37//28 38//28
f 36//29 33//29 22//29
f 36//30 22//30 34//30
f 39//31 40//31 41//31
f 39//32 41//32 35//32
f 39//33 26//33 27//33
f 39//34 23//34 26//34
f 39//35 35//35 23//35
f 42//36 43//36 44//36
f 42//37 44//37 45//37
f 46//38 42//38 45//38
f 46//39 45//39 47//39
f 46//40 47//40 48//40
f 49//41 42//41 46//41
f 50//42 33//42 36//42
f 50//43 42//43 49//43
f 50//44 36//44 42//44
f 51//45 46//45 39//45
f 51//46 49//46 46//46
f 51//47 39//47 27//47
f 33//48 15//48 16//48
f 15//49 26//49 13//49
f 16//50 13//50 18//50
f 18//51 13//51 19//51
f 16//52 14//52 52//52
f 16//53 52//53 53//53
f 54//54 12//54 55//54
f 54//55 56//55 12//55
f 57//56 56//56 54//56
f 58//57 56//57 57//57
f 59//58 57//58 54//58
f 60//59 54//59 55//59
f 61//60 56//60 58//60
f 62//61 59//61 54//61
f 63//62 56//62 64//62
f 63//63 12//63 56//63
f 65//64 64//64 66//64
f 67//65 68//65 60//65
f 69//66 63//66 64//66
f 11//67 63//67 70//67
f 11//68 12//68 63//68
f 71//69 52//69 55//69
f 71//70 55//70 12//70
f 72//71 67//71 60//71
f 73//72 64//72 65//72
f 74//73 11//73 70//73
f 75//74 76//74 72//74
f 75//75 77//75 76//75
f 75//76 72//76 60//76
f 78//77 79//77 80//77
f 78//78 73//78 79//78
f 78//79 74//79 69//79
f 78//80 69//80 64//80
f 78//81 64//81 73//81
f 81//82 82//82 83//82
f 81//83 84//83 82//83
f 81//84 74//84 78//84
f 85//85 86//85 87//85
f 85//86 83//86 86//86
f 85//87 81//87 83//87
f 53//88 85//88 75//88
f 53//89 52//89 71//89
f 88//90 81//90 85//90
f 88//91 74//91 81//91
f 88//92 53//92 71//92
f 88//93 85//93 53//93
f 88//94 11//94 74//94
f 55//95 53//95 75//95
f 55//96 75//96 60//96
f 13//97 16//97 53//97
f 13//98 53//98 55//98
f 14//99 13//99 55//99
f 14//100 55//100 52//100
f 64//101 56//101 46//101
f 46//102 56//102 39//102
f 56//103 61//103 39//103
f 39//104 61//104 40//104
f 40//105 61//105 41//105
f 41//106 58//106 35//106
f 61//107 58//107 41//107
f 35//108 57//108 31//108
f 58//109 57//109 35//109
f 31//110 59//110 32//110
f 57//111 59//111 31//111
f 59//112 62//112 32//112
f 62//113 23//113 32//113
f 62//114 54//114 23//114
f 54//115 60//115 23//115
f 23//116 60//116 19//116
f 60//117 68//117 19//117
f 19//118 68//118 24//118
f 24//119 68//119 21//119
f 21//120 67//120 17//120
f 68//121 67//121 21//121
f 17//122 72//122 20//122
f 67//123 72//123 17//123
f 72//124 76//124 20//124
f 20//125 77//125 25//125
f 76//126 77//126 20//126
f 77//127 75//127 25//127
f 25//128 75//128 18//128
f 75//129 85//129 18//129
f 18//130 85//130 22//130
f 85//131 87//131 22//131
f 22//132 87//132 30//132
f 30//133 87//133 29//133
f 29//134 86//134 34//134
f 87//135 86//135 29//135
f 86//136 83//136 34//136
f 34//137 82//137 37//137
f 83//138 82//138 34//138
f 37//139 84//139 38//139
f 82//140 84//140 37//140
f 84//141 81//141 38//141
f 38//142 81//142 36//142
f 81//143 78//143 36//143
f 36//144 78//144 42//144
f 78//145 80//145 42//145
f 42//146 80//146 43//146
f 80//147 79//147 43//147
f 43//148 79//148 44//148
f 44//149 73//149 45//149
f 79//150 73//150 44//150
f 45//151 65//151 47//151
f 73//152 65//152 45//152
f 47//153 66//153 48//153
f 65//154 66//154 47//154
f 66//155 64//155 48//155
f 48//156 64//156 46//156
f 50//157 49//157 74//157
f 74//158 49//158 69//158
f 49//159 51//159 69//159
f 69//160 51//160 63//160
f 88//161 9//161 5//161
f 88//162 5//162 11//162
f 28//163 12//163 27//163
f 4//164 27//164 12//164
f 10//165 27//165 4//165
f 7//166 28//166 3//166
f 7//167 71//167 28//167
f 71//168 12//168 28//168
f 71//169 7//169 9//169
f 71//170 9//170 88//170
f 51//171 6//171 70//171
f 63//172 51//172 70//172
f 10//173 6//173 51//173
f 27//174 10//174 51//174
f 3//175 28//175 26//175
f 3//176 26//176 1//176
f 50//177 74//177 70//177
f 6//178 50//178 70//178
f 8//179 33//179 50//179
f 8//180 50//180 6//180
f 15//181 1//181 26//181
f 15//182 2//182 1//182
f 2//183 33//183 8//183
f 2//184 15//184 33//184
