%TF.GenerationSoftware,KiCad,Pcbnew,7.0.6*%
%TF.CreationDate,2024-02-16T19:59:29+01:00*%
%TF.ProjectId,minitari,6d696e69-7461-4726-992e-6b696361645f,rev?*%
%TF.SameCoordinates,Original*%
%TF.FileFunction,Copper,L2,Bot*%
%TF.FilePolarity,Positive*%
%FSLAX46Y46*%
G04 Gerber Fmt 4.6, Leading zero omitted, Abs format (unit mm)*
G04 Created by KiCad (PCBNEW 7.0.6) date 2024-02-16 19:59:29*
%MOMM*%
%LPD*%
G01*
G04 APERTURE LIST*
G04 Aperture macros list*
%AMRoundRect*
0 Rectangle with rounded corners*
0 $1 Rounding radius*
0 $2 $3 $4 $5 $6 $7 $8 $9 X,Y pos of 4 corners*
0 Add a 4 corners polygon primitive as box body*
4,1,4,$2,$3,$4,$5,$6,$7,$8,$9,$2,$3,0*
0 Add four circle primitives for the rounded corners*
1,1,$1+$1,$2,$3*
1,1,$1+$1,$4,$5*
1,1,$1+$1,$6,$7*
1,1,$1+$1,$8,$9*
0 Add four rect primitives between the rounded corners*
20,1,$1+$1,$2,$3,$4,$5,0*
20,1,$1+$1,$4,$5,$6,$7,0*
20,1,$1+$1,$6,$7,$8,$9,0*
20,1,$1+$1,$8,$9,$2,$3,0*%
G04 Aperture macros list end*
%TA.AperFunction,SMDPad,CuDef*%
%ADD10RoundRect,0.135000X0.185000X-0.135000X0.185000X0.135000X-0.185000X0.135000X-0.185000X-0.135000X0*%
%TD*%
%TA.AperFunction,SMDPad,CuDef*%
%ADD11RoundRect,0.140000X-0.140000X-0.170000X0.140000X-0.170000X0.140000X0.170000X-0.140000X0.170000X0*%
%TD*%
%TA.AperFunction,SMDPad,CuDef*%
%ADD12RoundRect,0.135000X-0.135000X-0.185000X0.135000X-0.185000X0.135000X0.185000X-0.135000X0.185000X0*%
%TD*%
%TA.AperFunction,SMDPad,CuDef*%
%ADD13RoundRect,0.140000X0.140000X0.170000X-0.140000X0.170000X-0.140000X-0.170000X0.140000X-0.170000X0*%
%TD*%
%TA.AperFunction,SMDPad,CuDef*%
%ADD14RoundRect,0.135000X-0.185000X0.135000X-0.185000X-0.135000X0.185000X-0.135000X0.185000X0.135000X0*%
%TD*%
%TA.AperFunction,SMDPad,CuDef*%
%ADD15RoundRect,0.135000X0.135000X0.185000X-0.135000X0.185000X-0.135000X-0.185000X0.135000X-0.185000X0*%
%TD*%
%TA.AperFunction,SMDPad,CuDef*%
%ADD16RoundRect,0.062500X0.475000X0.062500X-0.475000X0.062500X-0.475000X-0.062500X0.475000X-0.062500X0*%
%TD*%
%TA.AperFunction,SMDPad,CuDef*%
%ADD17RoundRect,0.062500X0.062500X0.475000X-0.062500X0.475000X-0.062500X-0.475000X0.062500X-0.475000X0*%
%TD*%
%TA.AperFunction,SMDPad,CuDef*%
%ADD18R,5.200000X5.200000*%
%TD*%
%TA.AperFunction,SMDPad,CuDef*%
%ADD19RoundRect,0.140000X-0.170000X0.140000X-0.170000X-0.140000X0.170000X-0.140000X0.170000X0.140000X0*%
%TD*%
%TA.AperFunction,SMDPad,CuDef*%
%ADD20RoundRect,0.140000X0.170000X-0.140000X0.170000X0.140000X-0.170000X0.140000X-0.170000X-0.140000X0*%
%TD*%
%TA.AperFunction,SMDPad,CuDef*%
%ADD21R,0.500000X1.000000*%
%TD*%
%TA.AperFunction,SMDPad,CuDef*%
%ADD22R,0.900000X0.800000*%
%TD*%
%TA.AperFunction,ViaPad*%
%ADD23C,0.600000*%
%TD*%
%TA.AperFunction,Conductor*%
%ADD24C,0.200000*%
%TD*%
G04 APERTURE END LIST*
D10*
%TO.P,R4,1*%
%TO.N,Net-(U1-~{HWB}{slash}PE2)*%
X114600000Y-68910000D03*
%TO.P,R4,2*%
%TO.N,GND*%
X114600000Y-67890000D03*
%TD*%
D11*
%TO.P,C4,1*%
%TO.N,VCC*%
X116820000Y-66700000D03*
%TO.P,C4,2*%
%TO.N,GND*%
X117780000Y-66700000D03*
%TD*%
D12*
%TO.P,R2,1*%
%TO.N,Net-(U1-D-)*%
X124090000Y-69500000D03*
%TO.P,R2,2*%
%TO.N,Net-(J3-Pin_2)*%
X125110000Y-69500000D03*
%TD*%
D13*
%TO.P,C3,1*%
%TO.N,GND*%
X124980000Y-71600000D03*
%TO.P,C3,2*%
%TO.N,Net-(U1-UCAP)*%
X124020000Y-71600000D03*
%TD*%
%TO.P,C7,1*%
%TO.N,GND*%
X124980000Y-72600000D03*
%TO.P,C7,2*%
%TO.N,VCC*%
X124020000Y-72600000D03*
%TD*%
D11*
%TO.P,C6,1*%
%TO.N,VCC*%
X124120000Y-68500000D03*
%TO.P,C6,2*%
%TO.N,GND*%
X125080000Y-68500000D03*
%TD*%
D14*
%TO.P,R5,1*%
%TO.N,/D13*%
X114600000Y-69890000D03*
%TO.P,R5,2*%
%TO.N,Net-(D1-A)*%
X114600000Y-70910000D03*
%TD*%
D15*
%TO.P,R1,1*%
%TO.N,Net-(J3-Pin_3)*%
X125010000Y-70600000D03*
%TO.P,R1,2*%
%TO.N,Net-(U1-D+)*%
X123990000Y-70600000D03*
%TD*%
D16*
%TO.P,U1,1,PE6*%
%TO.N,D7*%
X122680476Y-68900000D03*
%TO.P,U1,2,UVCC*%
%TO.N,VCC*%
X122680476Y-69400000D03*
%TO.P,U1,3,D-*%
%TO.N,Net-(U1-D-)*%
X122680476Y-69900000D03*
%TO.P,U1,4,D+*%
%TO.N,Net-(U1-D+)*%
X122680476Y-70400000D03*
%TO.P,U1,5,UGND*%
%TO.N,GND*%
X122680476Y-70900000D03*
%TO.P,U1,6,UCAP*%
%TO.N,Net-(U1-UCAP)*%
X122680476Y-71400000D03*
%TO.P,U1,7,VBUS*%
%TO.N,VCC*%
X122680476Y-71900000D03*
%TO.P,U1,8,PB0*%
%TO.N,unconnected-(U1-PB0-Pad8)*%
X122680476Y-72400000D03*
%TO.P,U1,9,PB1*%
%TO.N,D15{slash}SCK*%
X122680476Y-72900000D03*
%TO.P,U1,10,PB2*%
%TO.N,D16{slash}MOSI*%
X122680476Y-73400000D03*
%TO.P,U1,11,PB3*%
%TO.N,D14{slash}MISO*%
X122680476Y-73900000D03*
D17*
%TO.P,U1,12,PB7*%
%TO.N,D11*%
X121842976Y-74737500D03*
%TO.P,U1,13,~{RESET}*%
%TO.N,RST*%
X121342976Y-74737500D03*
%TO.P,U1,14,VCC*%
%TO.N,VCC*%
X120842976Y-74737500D03*
%TO.P,U1,15,GND*%
%TO.N,GND*%
X120342976Y-74737500D03*
%TO.P,U1,16,XTAL2*%
%TO.N,Net-(U1-XTAL2)*%
X119842976Y-74737500D03*
%TO.P,U1,17,XTAL1*%
%TO.N,Net-(U1-XTAL1)*%
X119342976Y-74737500D03*
%TO.P,U1,18,PD0*%
%TO.N,D3{slash}SCL*%
X118842976Y-74737500D03*
%TO.P,U1,19,PD1*%
%TO.N,D2{slash}SDA*%
X118342976Y-74737500D03*
%TO.P,U1,20,PD2*%
%TO.N,D0{slash}RX*%
X117842976Y-74737500D03*
%TO.P,U1,21,PD3*%
%TO.N,D1{slash}TX*%
X117342976Y-74737500D03*
%TO.P,U1,22,PD5*%
%TO.N,unconnected-(U1-PD5-Pad22)*%
X116842976Y-74737500D03*
D16*
%TO.P,U1,23,GND*%
%TO.N,GND*%
X116005476Y-73900000D03*
%TO.P,U1,24,AVCC*%
%TO.N,VCC*%
X116005476Y-73400000D03*
%TO.P,U1,25,PD4*%
%TO.N,D4*%
X116005476Y-72900000D03*
%TO.P,U1,26,PD6*%
%TO.N,D12*%
X116005476Y-72400000D03*
%TO.P,U1,27,PD7*%
%TO.N,D6*%
X116005476Y-71900000D03*
%TO.P,U1,28,PB4*%
%TO.N,D8*%
X116005476Y-71400000D03*
%TO.P,U1,29,PB5*%
%TO.N,D9*%
X116005476Y-70900000D03*
%TO.P,U1,30,PB6*%
%TO.N,D10*%
X116005476Y-70400000D03*
%TO.P,U1,31,PC6*%
%TO.N,D5*%
X116005476Y-69900000D03*
%TO.P,U1,32,PC7*%
%TO.N,/D13*%
X116005476Y-69400000D03*
%TO.P,U1,33,~{HWB}/PE2*%
%TO.N,Net-(U1-~{HWB}{slash}PE2)*%
X116005476Y-68900000D03*
D17*
%TO.P,U1,34,VCC*%
%TO.N,VCC*%
X116842976Y-68062500D03*
%TO.P,U1,35,GND*%
%TO.N,GND*%
X117342976Y-68062500D03*
%TO.P,U1,36,PF7*%
%TO.N,D18*%
X117842976Y-68062500D03*
%TO.P,U1,37,PF6*%
%TO.N,D19*%
X118342976Y-68062500D03*
%TO.P,U1,38,PF5*%
%TO.N,D20*%
X118842976Y-68062500D03*
%TO.P,U1,39,PF4*%
%TO.N,D21*%
X119342976Y-68062500D03*
%TO.P,U1,40,PF1*%
%TO.N,D22*%
X119842976Y-68062500D03*
%TO.P,U1,41,PF0*%
%TO.N,D23*%
X120342976Y-68062500D03*
%TO.P,U1,42,AREF*%
%TO.N,unconnected-(U1-AREF-Pad42)*%
X120842976Y-68062500D03*
%TO.P,U1,43,GND*%
%TO.N,GND*%
X121342976Y-68062500D03*
%TO.P,U1,44,AVCC*%
%TO.N,VCC*%
X121842976Y-68062500D03*
D18*
%TO.P,U1,45,GND*%
%TO.N,GND*%
X119342976Y-71400000D03*
%TD*%
D19*
%TO.P,C2,1*%
%TO.N,GND*%
X119200000Y-76320000D03*
%TO.P,C2,2*%
%TO.N,Net-(U1-XTAL2)*%
X119200000Y-77280000D03*
%TD*%
D20*
%TO.P,C1,1*%
%TO.N,GND*%
X115400000Y-77280000D03*
%TO.P,C1,2*%
%TO.N,Net-(U1-XTAL1)*%
X115400000Y-76320000D03*
%TD*%
%TO.P,C8,1*%
%TO.N,GND*%
X120900000Y-77380000D03*
%TO.P,C8,2*%
%TO.N,VCC*%
X120900000Y-76420000D03*
%TD*%
D21*
%TO.P,J2,1,Pin_1*%
%TO.N,D15{slash}SCK*%
X125450000Y-77600000D03*
%TO.P,J2,2,Pin_2*%
%TO.N,D14{slash}MISO*%
X124050000Y-77600000D03*
%TO.P,J2,3,Pin_3*%
%TO.N,D16{slash}MOSI*%
X124750000Y-77600000D03*
%TO.P,J2,4,Pin_4*%
%TO.N,RST*%
X122650000Y-77600000D03*
%TO.P,J2,5,Pin_5*%
%TO.N,VCC*%
X123350000Y-77600000D03*
%TO.P,J2,6,Pin_6*%
%TO.N,GND*%
X121950000Y-77600000D03*
%TD*%
D22*
%TO.P,Y1,1,1*%
%TO.N,Net-(U1-XTAL2)*%
X118000000Y-77400000D03*
%TO.P,Y1,2,2*%
%TO.N,GND*%
X116600000Y-77400000D03*
%TO.P,Y1,3,3*%
%TO.N,Net-(U1-XTAL1)*%
X116600000Y-76300000D03*
%TO.P,Y1,4,4*%
%TO.N,GND*%
X118000000Y-76300000D03*
%TD*%
D15*
%TO.P,R3,1*%
%TO.N,VCC*%
X123110000Y-76100000D03*
%TO.P,R3,2*%
%TO.N,RST*%
X122090000Y-76100000D03*
%TD*%
D23*
%TO.N,GND*%
X118000000Y-76300000D03*
X120100000Y-77600000D03*
X125000000Y-71600000D03*
X119400000Y-71400000D03*
%TO.N,VCC*%
X125200000Y-74900000D03*
X122500000Y-68275500D03*
X123100000Y-76100000D03*
X120558070Y-75758069D03*
X123870105Y-72446643D03*
%TO.N,Net-(D1-A)*%
X113900000Y-71000000D03*
%TO.N,D14{slash}MISO*%
X122864823Y-74864823D03*
%TO.N,D16{slash}MOSI*%
X123716149Y-74001112D03*
%TO.N,Net-(J3-Pin_2)*%
X125110000Y-69500000D03*
%TO.N,Net-(J3-Pin_3)*%
X125200500Y-75863536D03*
%TO.N,D1{slash}TX*%
X115400000Y-75600000D03*
%TO.N,D4*%
X114900000Y-72900000D03*
%TO.N,D22*%
X119800000Y-67000000D03*
%TO.N,D23*%
X122123992Y-67069720D03*
%TD*%
D24*
%TO.N,GND*%
X120342976Y-72400000D02*
X119342976Y-71400000D01*
X117342976Y-68062500D02*
X117342976Y-67137024D01*
X120342976Y-74737500D02*
X120342976Y-72400000D01*
X122680476Y-70900000D02*
X119842976Y-70900000D01*
X121342976Y-68062500D02*
X121342976Y-69400000D01*
X116842976Y-73900000D02*
X119342976Y-71400000D01*
X116005476Y-73900000D02*
X116842976Y-73900000D01*
X120900000Y-77380000D02*
X120920000Y-77380000D01*
X120920000Y-77380000D02*
X121140000Y-77600000D01*
X121140000Y-77600000D02*
X121950000Y-77600000D01*
X117342976Y-69400000D02*
X119342976Y-71400000D01*
X117342976Y-67137024D02*
X117780000Y-66700000D01*
X119842976Y-70900000D02*
X119342976Y-71400000D01*
X119200000Y-76320000D02*
X119180000Y-76300000D01*
X117342976Y-68062500D02*
X117342976Y-69400000D01*
X121342976Y-69400000D02*
X119342976Y-71400000D01*
X119180000Y-76300000D02*
X118000000Y-76300000D01*
%TO.N,Net-(U1-XTAL1)*%
X116900000Y-76300000D02*
X117600000Y-75600000D01*
X115700000Y-76420000D02*
X116780000Y-76420000D01*
X117600000Y-75600000D02*
X119100000Y-75600000D01*
X119100000Y-75600000D02*
X119342976Y-75357024D01*
X116780000Y-76420000D02*
X116900000Y-76300000D01*
X119342976Y-75357024D02*
X119342976Y-74737500D01*
%TO.N,Net-(U1-XTAL2)*%
X119080000Y-77400000D02*
X119200000Y-77280000D01*
X119200000Y-77280000D02*
X119810000Y-76670000D01*
X118300000Y-77400000D02*
X119080000Y-77400000D01*
X119810000Y-76670000D02*
X119810000Y-74770476D01*
X119810000Y-74770476D02*
X119842976Y-74737500D01*
%TO.N,Net-(U1-UCAP)*%
X124120000Y-71600000D02*
X123920000Y-71400000D01*
X123920000Y-71400000D02*
X122680476Y-71400000D01*
%TO.N,VCC*%
X123100000Y-76100000D02*
X123110000Y-76575686D01*
X122723992Y-67318249D02*
X122500000Y-67542241D01*
X114854817Y-66700000D02*
X116820000Y-66700000D01*
X116005476Y-73400000D02*
X115248529Y-73400000D01*
X120842976Y-75473163D02*
X120842976Y-74737500D01*
X124120000Y-68500000D02*
X123520000Y-69100000D01*
X123324314Y-69400000D02*
X122680476Y-69400000D01*
X116820000Y-66700000D02*
X116820000Y-68039524D01*
X123520000Y-69204314D02*
X123324314Y-69400000D01*
X113300000Y-72148529D02*
X113300000Y-68254817D01*
X124020000Y-72600000D02*
X124020000Y-72596538D01*
X124120000Y-68500000D02*
X123895500Y-68275500D01*
X114651471Y-73500000D02*
X113300000Y-72148529D01*
X123110000Y-76100000D02*
X123100000Y-76100000D01*
X115148529Y-73500000D02*
X114651471Y-73500000D01*
X125200000Y-73752254D02*
X125200000Y-74900000D01*
X123895500Y-68275500D02*
X122500000Y-68275500D01*
X123110000Y-76575686D02*
X123350000Y-76815686D01*
X123350000Y-76815686D02*
X123350000Y-77600000D01*
X122723992Y-66821191D02*
X122723992Y-67318249D01*
X116820000Y-66700000D02*
X117430000Y-66090000D01*
X122500000Y-67542241D02*
X122500000Y-68275500D01*
X124020000Y-72600000D02*
X124047746Y-72600000D01*
X120558070Y-76078070D02*
X120900000Y-76420000D01*
X123320000Y-71900000D02*
X122680476Y-71900000D01*
X122500000Y-68275500D02*
X122055976Y-68275500D01*
X122055976Y-68275500D02*
X121842976Y-68062500D01*
X113300000Y-68254817D02*
X114854817Y-66700000D01*
X115248529Y-73400000D02*
X115148529Y-73500000D01*
X116820000Y-68039524D02*
X116842976Y-68062500D01*
X121992801Y-66090000D02*
X122723992Y-66821191D01*
X124020000Y-72600000D02*
X123320000Y-71900000D01*
X124047746Y-72600000D02*
X125200000Y-73752254D01*
X120558070Y-75758069D02*
X120842976Y-75473163D01*
X124020000Y-72596538D02*
X123870105Y-72446643D01*
X117430000Y-66090000D02*
X121992801Y-66090000D01*
X123520000Y-69100000D02*
X123520000Y-69204314D01*
X120558070Y-75758069D02*
X120558070Y-76078070D01*
%TO.N,Net-(D1-A)*%
X114510000Y-71000000D02*
X114600000Y-70910000D01*
X113900000Y-71000000D02*
X114510000Y-71000000D01*
%TO.N,D15{slash}SCK*%
X125450000Y-77400000D02*
X125450000Y-76700000D01*
X125213536Y-76463536D02*
X124951971Y-76463536D01*
X123765409Y-73201843D02*
X123598157Y-73201843D01*
X125450000Y-76700000D02*
X125213536Y-76463536D01*
X123598157Y-73201843D02*
X123296314Y-72900000D01*
X124600000Y-74036434D02*
X123765409Y-73201843D01*
X123296314Y-72900000D02*
X122680476Y-72900000D01*
X124951971Y-76463536D02*
X124600000Y-76111565D01*
X124600000Y-76111565D02*
X124600000Y-74036434D01*
%TO.N,D14{slash}MISO*%
X124050000Y-76950000D02*
X123700000Y-76600000D01*
X124050000Y-77600000D02*
X124050000Y-76950000D01*
X123700000Y-76600000D02*
X123700000Y-75700000D01*
X122864823Y-74084347D02*
X122680476Y-73900000D01*
X122864823Y-74864823D02*
X122864823Y-74084347D01*
X123700000Y-75700000D02*
X122864823Y-74864823D01*
%TO.N,D16{slash}MOSI*%
X123716149Y-74001112D02*
X123517976Y-73802939D01*
X124750000Y-76950000D02*
X124750000Y-77600000D01*
X123716149Y-74001112D02*
X124100000Y-74384963D01*
X123230628Y-73400000D02*
X122680476Y-73400000D01*
X123517976Y-73687348D02*
X123230628Y-73400000D01*
X124100000Y-76300000D02*
X124750000Y-76950000D01*
X124100000Y-74384963D02*
X124100000Y-76300000D01*
X123517976Y-73802939D02*
X123517976Y-73687348D01*
%TO.N,RST*%
X121342976Y-75352976D02*
X121342976Y-74737500D01*
X122650000Y-77600000D02*
X122650000Y-76660000D01*
X122090000Y-76100000D02*
X121342976Y-75352976D01*
X122650000Y-76660000D02*
X122090000Y-76100000D01*
%TO.N,Net-(J3-Pin_3)*%
X125200500Y-75863536D02*
X125800000Y-75264036D01*
X125800000Y-71290000D02*
X125110000Y-70600000D01*
X125800000Y-75264036D02*
X125800000Y-71290000D01*
%TO.N,Net-(U1-D+)*%
X122680476Y-70400000D02*
X123890000Y-70400000D01*
X123890000Y-70400000D02*
X124090000Y-70600000D01*
%TO.N,Net-(U1-D-)*%
X123690000Y-69900000D02*
X124090000Y-69500000D01*
X122680476Y-69900000D02*
X123690000Y-69900000D01*
%TO.N,Net-(U1-~{HWB}{slash}PE2)*%
X115995476Y-68910000D02*
X116005476Y-68900000D01*
X114600000Y-68910000D02*
X115995476Y-68910000D01*
%TO.N,/D13*%
X114600000Y-69890000D02*
X115090000Y-69400000D01*
X115090000Y-69400000D02*
X116005476Y-69400000D01*
%TO.N,D1{slash}TX*%
X117342976Y-75287652D02*
X117342976Y-74737500D01*
X115400000Y-75600000D02*
X117030628Y-75600000D01*
X117030628Y-75600000D02*
X117342976Y-75287652D01*
%TO.N,D4*%
X114900000Y-72900000D02*
X116005476Y-72900000D01*
%TO.N,D22*%
X119800000Y-67000000D02*
X119842976Y-67042976D01*
X119842976Y-67042976D02*
X119842976Y-68062500D01*
%TO.N,D23*%
X120342976Y-68062500D02*
X120342976Y-67512348D01*
X120785604Y-67069720D02*
X122123992Y-67069720D01*
X120342976Y-67512348D02*
X120785604Y-67069720D01*
%TD*%
%TA.AperFunction,Conductor*%
%TO.N,GND*%
G36*
X126001667Y-64719407D02*
G01*
X126037631Y-64768907D01*
X126042476Y-64799500D01*
X126042476Y-70868497D01*
X126023569Y-70926688D01*
X125974069Y-70962652D01*
X125912883Y-70962652D01*
X125873472Y-70938501D01*
X125509495Y-70574524D01*
X125481718Y-70520007D01*
X125480499Y-70504519D01*
X125480499Y-70467518D01*
X125480500Y-70375684D01*
X125474068Y-70326827D01*
X125466967Y-70311600D01*
X125424066Y-70219598D01*
X125424065Y-70219597D01*
X125424065Y-70219596D01*
X125354965Y-70150496D01*
X125327190Y-70095982D01*
X125336761Y-70035550D01*
X125380026Y-69992285D01*
X125383081Y-69990795D01*
X125440404Y-69964065D01*
X125524065Y-69880404D01*
X125574068Y-69773173D01*
X125580500Y-69724316D01*
X125580500Y-69696104D01*
X125589448Y-69654975D01*
X125591720Y-69650000D01*
X125595165Y-69642457D01*
X125607078Y-69559598D01*
X125615647Y-69500002D01*
X125615647Y-69499997D01*
X125595166Y-69357547D01*
X125595165Y-69357545D01*
X125595165Y-69357543D01*
X125589444Y-69345017D01*
X125580500Y-69303894D01*
X125580500Y-69275685D01*
X125575855Y-69240404D01*
X125574068Y-69226827D01*
X125551142Y-69177663D01*
X125524066Y-69119598D01*
X125524065Y-69119597D01*
X125524065Y-69119596D01*
X125457651Y-69053182D01*
X125429876Y-68998668D01*
X125439447Y-68938236D01*
X125457654Y-68913177D01*
X125502808Y-68868023D01*
X125502809Y-68868021D01*
X125553478Y-68759361D01*
X125553480Y-68759354D01*
X125560000Y-68709838D01*
X125560000Y-68600001D01*
X125559999Y-68600000D01*
X125079000Y-68600000D01*
X125020809Y-68581093D01*
X124984845Y-68531593D01*
X124980000Y-68501000D01*
X124980000Y-67990000D01*
X125180000Y-67990000D01*
X125180000Y-68399999D01*
X125180001Y-68400000D01*
X125559999Y-68400000D01*
X125560000Y-68399999D01*
X125560000Y-68290161D01*
X125553480Y-68240645D01*
X125553478Y-68240638D01*
X125502809Y-68131978D01*
X125418021Y-68047190D01*
X125309361Y-67996521D01*
X125309354Y-67996519D01*
X125259839Y-67990000D01*
X125180000Y-67990000D01*
X124980000Y-67990000D01*
X124900161Y-67990000D01*
X124850645Y-67996519D01*
X124850638Y-67996521D01*
X124741978Y-68047190D01*
X124670358Y-68118811D01*
X124615841Y-68146588D01*
X124555409Y-68137017D01*
X124530353Y-68118813D01*
X124458316Y-68046776D01*
X124458314Y-68046775D01*
X124458313Y-68046774D01*
X124352191Y-67997289D01*
X124349488Y-67996028D01*
X124324694Y-67992764D01*
X124299901Y-67989500D01*
X124299900Y-67989500D01*
X124007609Y-67989500D01*
X123971846Y-67982815D01*
X123951674Y-67975000D01*
X123951673Y-67975000D01*
X123941848Y-67975000D01*
X123919183Y-67972370D01*
X123909619Y-67970121D01*
X123909618Y-67970121D01*
X123878047Y-67974525D01*
X123871201Y-67975000D01*
X122947084Y-67975000D01*
X122888893Y-67956093D01*
X122872265Y-67940831D01*
X122826492Y-67888006D01*
X122828524Y-67886244D01*
X122803067Y-67844005D01*
X122800500Y-67821605D01*
X122800500Y-67707718D01*
X122819407Y-67649527D01*
X122829491Y-67637719D01*
X122890393Y-67576817D01*
X122901653Y-67568745D01*
X122900894Y-67567739D01*
X122908216Y-67562209D01*
X122908216Y-67562208D01*
X122908220Y-67562207D01*
X122940635Y-67526647D01*
X122942147Y-67525064D01*
X122956167Y-67511046D01*
X122958180Y-67508106D01*
X122962429Y-67502741D01*
X122983908Y-67479182D01*
X122987457Y-67470018D01*
X122998103Y-67449824D01*
X123003649Y-67441729D01*
X123010946Y-67410696D01*
X123012971Y-67404157D01*
X123024492Y-67374422D01*
X123024492Y-67364596D01*
X123027122Y-67341927D01*
X123029371Y-67332367D01*
X123024967Y-67300792D01*
X123024492Y-67293946D01*
X123024492Y-66886359D01*
X123026723Y-66872686D01*
X123025497Y-66872515D01*
X123026765Y-66863423D01*
X123025739Y-66841238D01*
X123024544Y-66815398D01*
X123024492Y-66813119D01*
X123024492Y-66793351D01*
X123024492Y-66793347D01*
X123023838Y-66789855D01*
X123023048Y-66783050D01*
X123021577Y-66751199D01*
X123017607Y-66742208D01*
X123010856Y-66720406D01*
X123009053Y-66710759D01*
X123009053Y-66710758D01*
X122992268Y-66683649D01*
X122989076Y-66677592D01*
X122976198Y-66648426D01*
X122976197Y-66648424D01*
X122969248Y-66641475D01*
X122955082Y-66623590D01*
X122949911Y-66615239D01*
X122924475Y-66596030D01*
X122919298Y-66591525D01*
X122251366Y-65923594D01*
X122243280Y-65912344D01*
X122242288Y-65913094D01*
X122236759Y-65905772D01*
X122201229Y-65873382D01*
X122199576Y-65871804D01*
X122185598Y-65857826D01*
X122182660Y-65855813D01*
X122177297Y-65851564D01*
X122153734Y-65830084D01*
X122144563Y-65826531D01*
X122124387Y-65815895D01*
X122116285Y-65810345D01*
X122116280Y-65810343D01*
X122085258Y-65803046D01*
X122078703Y-65801016D01*
X122048978Y-65789501D01*
X122048975Y-65789500D01*
X122048974Y-65789500D01*
X122048973Y-65789500D01*
X122039149Y-65789500D01*
X122016484Y-65786870D01*
X122006920Y-65784621D01*
X122006919Y-65784621D01*
X121975348Y-65789025D01*
X121968502Y-65789500D01*
X117495164Y-65789500D01*
X117481488Y-65787267D01*
X117481317Y-65788494D01*
X117472233Y-65787226D01*
X117431886Y-65789092D01*
X117424206Y-65789447D01*
X117421930Y-65789500D01*
X117402153Y-65789500D01*
X117398658Y-65790153D01*
X117391845Y-65790943D01*
X117360010Y-65792414D01*
X117360006Y-65792415D01*
X117351015Y-65796385D01*
X117329227Y-65803132D01*
X117319570Y-65804937D01*
X117319564Y-65804939D01*
X117292466Y-65821717D01*
X117286399Y-65824915D01*
X117257237Y-65837792D01*
X117257233Y-65837795D01*
X117250284Y-65844744D01*
X117232409Y-65858903D01*
X117224048Y-65864080D01*
X117204839Y-65889515D01*
X117200335Y-65894692D01*
X116934523Y-66160504D01*
X116880006Y-66188281D01*
X116864519Y-66189500D01*
X116640104Y-66189500D01*
X116640092Y-66189501D01*
X116590513Y-66196027D01*
X116590511Y-66196027D01*
X116481686Y-66246774D01*
X116396776Y-66331684D01*
X116391808Y-66342339D01*
X116350079Y-66387087D01*
X116302083Y-66399500D01*
X114919981Y-66399500D01*
X114906305Y-66397267D01*
X114906134Y-66398494D01*
X114897050Y-66397226D01*
X114856703Y-66399092D01*
X114849023Y-66399447D01*
X114846747Y-66399500D01*
X114826970Y-66399500D01*
X114823475Y-66400153D01*
X114816662Y-66400943D01*
X114784827Y-66402414D01*
X114784823Y-66402415D01*
X114775832Y-66406385D01*
X114754044Y-66413132D01*
X114744387Y-66414937D01*
X114744381Y-66414939D01*
X114717283Y-66431717D01*
X114711216Y-66434915D01*
X114682054Y-66447792D01*
X114682050Y-66447795D01*
X114675101Y-66454744D01*
X114657226Y-66468903D01*
X114648865Y-66474080D01*
X114629656Y-66499515D01*
X114625152Y-66504692D01*
X113133590Y-67996254D01*
X113122361Y-68004367D01*
X113123090Y-68005332D01*
X113115771Y-68010858D01*
X113083372Y-68046397D01*
X113081796Y-68048048D01*
X113067830Y-68062015D01*
X113067817Y-68062030D01*
X113065813Y-68064955D01*
X113061561Y-68070321D01*
X113040084Y-68093882D01*
X113040083Y-68093884D01*
X113036529Y-68103057D01*
X113025896Y-68123229D01*
X113020346Y-68131332D01*
X113020342Y-68131341D01*
X113013045Y-68162362D01*
X113011016Y-68168915D01*
X112999500Y-68198641D01*
X112999500Y-68208468D01*
X112996870Y-68231135D01*
X112994621Y-68240696D01*
X112999025Y-68272269D01*
X112999500Y-68279115D01*
X112999500Y-72083364D01*
X112997280Y-72097042D01*
X112998494Y-72097212D01*
X112997226Y-72106295D01*
X112999077Y-72146323D01*
X112999247Y-72150000D01*
X112999447Y-72154312D01*
X112999500Y-72156598D01*
X112999500Y-72176371D01*
X113000152Y-72179861D01*
X113000943Y-72186678D01*
X113002414Y-72218516D01*
X113002415Y-72218523D01*
X113006384Y-72227511D01*
X113013133Y-72249302D01*
X113014939Y-72258962D01*
X113031717Y-72286062D01*
X113034915Y-72292129D01*
X113043513Y-72311599D01*
X113047794Y-72321294D01*
X113054745Y-72328245D01*
X113068907Y-72346125D01*
X113074081Y-72354481D01*
X113099511Y-72373685D01*
X113104690Y-72378191D01*
X114392908Y-73666409D01*
X114401008Y-73677648D01*
X114401987Y-73676909D01*
X114407515Y-73684230D01*
X114443030Y-73716606D01*
X114444682Y-73718184D01*
X114451998Y-73725499D01*
X114458674Y-73732175D01*
X114460925Y-73733717D01*
X114461601Y-73734180D01*
X114466983Y-73738443D01*
X114482081Y-73752206D01*
X114490538Y-73759916D01*
X114499699Y-73763464D01*
X114519887Y-73774105D01*
X114527991Y-73779657D01*
X114559029Y-73786957D01*
X114565567Y-73788982D01*
X114595298Y-73800500D01*
X114605123Y-73800500D01*
X114627787Y-73803129D01*
X114637352Y-73805379D01*
X114665116Y-73801506D01*
X114668924Y-73800975D01*
X114675770Y-73800500D01*
X115083365Y-73800500D01*
X115097040Y-73802732D01*
X115097212Y-73801506D01*
X115106293Y-73802772D01*
X115106294Y-73802773D01*
X115106294Y-73802772D01*
X115106295Y-73802773D01*
X115115036Y-73802368D01*
X115154322Y-73800552D01*
X115156599Y-73800500D01*
X115176370Y-73800500D01*
X115176373Y-73800500D01*
X115179866Y-73799846D01*
X115186668Y-73799056D01*
X115216896Y-73797660D01*
X115225418Y-73800000D01*
X116006476Y-73800000D01*
X116064667Y-73818907D01*
X116100631Y-73868407D01*
X116105476Y-73899000D01*
X116105476Y-74224999D01*
X116105477Y-74225000D01*
X116418476Y-74225000D01*
X116476667Y-74243907D01*
X116512631Y-74293407D01*
X116517476Y-74324000D01*
X116517477Y-75200500D01*
X116498570Y-75258691D01*
X116449070Y-75294655D01*
X116418477Y-75299500D01*
X115847083Y-75299500D01*
X115788892Y-75280593D01*
X115772264Y-75265331D01*
X115731128Y-75217857D01*
X115693558Y-75193712D01*
X115610057Y-75140049D01*
X115610054Y-75140047D01*
X115610053Y-75140047D01*
X115610050Y-75140046D01*
X115471964Y-75099500D01*
X115471961Y-75099500D01*
X115328039Y-75099500D01*
X115328035Y-75099500D01*
X115189949Y-75140046D01*
X115189942Y-75140049D01*
X115068873Y-75217855D01*
X114974622Y-75326628D01*
X114914834Y-75457543D01*
X114894353Y-75599997D01*
X114894353Y-75600002D01*
X114914834Y-75742456D01*
X114971294Y-75866084D01*
X114978269Y-75926871D01*
X114951248Y-75977211D01*
X114946777Y-75981682D01*
X114946774Y-75981686D01*
X114896029Y-76090510D01*
X114896028Y-76090511D01*
X114889500Y-76140100D01*
X114889500Y-76499895D01*
X114889501Y-76499907D01*
X114896027Y-76549486D01*
X114896027Y-76549488D01*
X114946774Y-76658313D01*
X114946775Y-76658314D01*
X114946776Y-76658316D01*
X115018812Y-76730352D01*
X115046588Y-76784867D01*
X115037017Y-76845299D01*
X115018811Y-76870358D01*
X114947190Y-76941978D01*
X114896521Y-77050638D01*
X114896519Y-77050645D01*
X114890000Y-77100161D01*
X114890000Y-77179999D01*
X114890001Y-77180000D01*
X115401000Y-77180000D01*
X115459191Y-77198907D01*
X115495155Y-77248407D01*
X115500000Y-77279000D01*
X115500000Y-77759999D01*
X115500001Y-77760000D01*
X115609838Y-77760000D01*
X115659354Y-77753480D01*
X115659361Y-77753478D01*
X115768021Y-77702809D01*
X115768022Y-77702808D01*
X115780995Y-77689836D01*
X115835510Y-77662057D01*
X115895943Y-77671627D01*
X115939208Y-77714891D01*
X115950000Y-77759838D01*
X115950000Y-77819700D01*
X115961603Y-77878036D01*
X116006681Y-77945498D01*
X116023290Y-78004386D01*
X116002113Y-78061790D01*
X115951239Y-78095783D01*
X115924366Y-78099500D01*
X112742476Y-78099500D01*
X112684285Y-78080593D01*
X112648321Y-78031093D01*
X112643476Y-78000500D01*
X112643476Y-77459838D01*
X114890000Y-77459838D01*
X114896519Y-77509354D01*
X114896521Y-77509361D01*
X114947190Y-77618021D01*
X115031978Y-77702809D01*
X115140638Y-77753478D01*
X115140645Y-77753480D01*
X115190161Y-77760000D01*
X115299999Y-77760000D01*
X115300000Y-77759999D01*
X115300000Y-77380001D01*
X115299999Y-77380000D01*
X114890001Y-77380000D01*
X114890000Y-77380001D01*
X114890000Y-77459838D01*
X112643476Y-77459838D01*
X112643476Y-74000000D01*
X115270292Y-74000000D01*
X115283207Y-74064923D01*
X115341222Y-74151749D01*
X115341226Y-74151753D01*
X115428052Y-74209768D01*
X115504619Y-74224999D01*
X115504621Y-74225000D01*
X115905475Y-74225000D01*
X115905476Y-74224999D01*
X115905476Y-74000001D01*
X115905475Y-74000000D01*
X115270292Y-74000000D01*
X112643476Y-74000000D01*
X112643476Y-64799500D01*
X112662383Y-64741309D01*
X112711883Y-64705345D01*
X112742476Y-64700500D01*
X125943476Y-64700500D01*
X126001667Y-64719407D01*
G37*
%TD.AperFunction*%
%TA.AperFunction,Conductor*%
G36*
X120289593Y-76219498D02*
G01*
X120300063Y-76237698D01*
X120301437Y-76240809D01*
X120305864Y-76250835D01*
X120312815Y-76257786D01*
X120326977Y-76275666D01*
X120332151Y-76284022D01*
X120350159Y-76297621D01*
X120385203Y-76347774D01*
X120389500Y-76376625D01*
X120389500Y-76599895D01*
X120389501Y-76599907D01*
X120396027Y-76649486D01*
X120396027Y-76649488D01*
X120446774Y-76758313D01*
X120446775Y-76758314D01*
X120446776Y-76758316D01*
X120518812Y-76830352D01*
X120546588Y-76884867D01*
X120537017Y-76945299D01*
X120518811Y-76970358D01*
X120447190Y-77041978D01*
X120396521Y-77150638D01*
X120396519Y-77150645D01*
X120390000Y-77200161D01*
X120390000Y-77279999D01*
X120390001Y-77280000D01*
X120901000Y-77280000D01*
X120959191Y-77298907D01*
X120995155Y-77348407D01*
X121000000Y-77379000D01*
X121000000Y-77859999D01*
X121000001Y-77860000D01*
X121109838Y-77860000D01*
X121159354Y-77853480D01*
X121159361Y-77853478D01*
X121268021Y-77802809D01*
X121268023Y-77802808D01*
X121330996Y-77739835D01*
X121385512Y-77712057D01*
X121445944Y-77721628D01*
X121489209Y-77764892D01*
X121500000Y-77809838D01*
X121500000Y-78000500D01*
X121481093Y-78058691D01*
X121431593Y-78094655D01*
X121401000Y-78099500D01*
X118676235Y-78099500D01*
X118618044Y-78080593D01*
X118582080Y-78031093D01*
X118582080Y-77969907D01*
X118593920Y-77945498D01*
X118600176Y-77936133D01*
X118638867Y-77878231D01*
X118650500Y-77819748D01*
X118650500Y-77799499D01*
X118669407Y-77741309D01*
X118718907Y-77705345D01*
X118749500Y-77700500D01*
X118803895Y-77700500D01*
X118845734Y-77709776D01*
X118940510Y-77753971D01*
X118940511Y-77753971D01*
X118940513Y-77753972D01*
X118990099Y-77760500D01*
X119409900Y-77760499D01*
X119459487Y-77753972D01*
X119459488Y-77753972D01*
X119518137Y-77726622D01*
X119568316Y-77703224D01*
X119653224Y-77618316D01*
X119680493Y-77559838D01*
X120390000Y-77559838D01*
X120396519Y-77609354D01*
X120396521Y-77609361D01*
X120447190Y-77718021D01*
X120531978Y-77802809D01*
X120640638Y-77853478D01*
X120640645Y-77853480D01*
X120690161Y-77860000D01*
X120799999Y-77860000D01*
X120800000Y-77859998D01*
X120800000Y-77480001D01*
X120799999Y-77480000D01*
X120390001Y-77480000D01*
X120390000Y-77480001D01*
X120390000Y-77559838D01*
X119680493Y-77559838D01*
X119703972Y-77509487D01*
X119710500Y-77459901D01*
X119710499Y-77235477D01*
X119729406Y-77177288D01*
X119739489Y-77165480D01*
X119976405Y-76928564D01*
X119987664Y-76920493D01*
X119986905Y-76919487D01*
X119994221Y-76913961D01*
X119994228Y-76913958D01*
X120026632Y-76878411D01*
X120028186Y-76876783D01*
X120042174Y-76862797D01*
X120044181Y-76859865D01*
X120048440Y-76854490D01*
X120057500Y-76844552D01*
X120069916Y-76830933D01*
X120073465Y-76821770D01*
X120084106Y-76801582D01*
X120089656Y-76793481D01*
X120096955Y-76762443D01*
X120098977Y-76755914D01*
X120110500Y-76726173D01*
X120110500Y-76716348D01*
X120113129Y-76693683D01*
X120115379Y-76684119D01*
X120110975Y-76652546D01*
X120110500Y-76645699D01*
X120110500Y-76277689D01*
X120129407Y-76219498D01*
X120178907Y-76183534D01*
X120240093Y-76183534D01*
X120289593Y-76219498D01*
G37*
%TD.AperFunction*%
%TA.AperFunction,Conductor*%
G36*
X121230488Y-75665459D02*
G01*
X121590504Y-76025475D01*
X121618281Y-76079992D01*
X121619500Y-76095479D01*
X121619500Y-76324314D01*
X121625932Y-76373174D01*
X121625932Y-76373175D01*
X121675933Y-76480401D01*
X121675934Y-76480402D01*
X121675935Y-76480404D01*
X121759596Y-76564065D01*
X121759597Y-76564065D01*
X121759598Y-76564066D01*
X121866824Y-76614067D01*
X121866825Y-76614067D01*
X121866827Y-76614068D01*
X121915684Y-76620500D01*
X122144521Y-76620500D01*
X122202712Y-76639407D01*
X122214524Y-76649496D01*
X122259231Y-76694203D01*
X122296184Y-76731155D01*
X122323962Y-76785671D01*
X122314391Y-76846104D01*
X122271127Y-76889368D01*
X122224560Y-76898165D01*
X122224561Y-76900000D01*
X122050001Y-76900000D01*
X122050000Y-76900001D01*
X122050000Y-77601000D01*
X122031093Y-77659191D01*
X121981593Y-77695155D01*
X121951000Y-77700000D01*
X121949000Y-77700000D01*
X121890809Y-77681093D01*
X121854845Y-77631593D01*
X121850000Y-77601000D01*
X121850000Y-76900001D01*
X121849999Y-76900000D01*
X121680299Y-76900000D01*
X121621963Y-76911603D01*
X121555810Y-76955806D01*
X121555805Y-76955811D01*
X121507002Y-77028850D01*
X121458952Y-77066729D01*
X121397814Y-77069131D01*
X121354683Y-77043851D01*
X121281189Y-76970356D01*
X121253412Y-76915839D01*
X121262984Y-76855407D01*
X121281187Y-76830352D01*
X121353224Y-76758316D01*
X121403972Y-76649487D01*
X121410500Y-76599901D01*
X121410499Y-76240100D01*
X121409890Y-76235477D01*
X121403972Y-76190513D01*
X121403972Y-76190511D01*
X121353225Y-76081686D01*
X121353224Y-76081685D01*
X121353224Y-76081684D01*
X121268316Y-75996776D01*
X121268314Y-75996775D01*
X121268313Y-75996774D01*
X121159489Y-75946029D01*
X121159488Y-75946028D01*
X121149152Y-75944667D01*
X121138300Y-75943238D01*
X121083076Y-75916897D01*
X121053882Y-75863126D01*
X121053232Y-75830997D01*
X121058014Y-75797737D01*
X121063717Y-75758069D01*
X121062492Y-75749553D01*
X121072923Y-75689268D01*
X121116798Y-75646623D01*
X121177361Y-75637912D01*
X121230488Y-75665459D01*
G37*
%TD.AperFunction*%
%TA.AperFunction,Conductor*%
G36*
X118687184Y-76218907D02*
G01*
X118692971Y-76223849D01*
X118709007Y-76220000D01*
X119201000Y-76220000D01*
X119259191Y-76238907D01*
X119295155Y-76288407D01*
X119300000Y-76319000D01*
X119300000Y-76321000D01*
X119281093Y-76379191D01*
X119231593Y-76415155D01*
X119201000Y-76420000D01*
X118711007Y-76420000D01*
X118652816Y-76401093D01*
X118647028Y-76396150D01*
X118630993Y-76400000D01*
X117999000Y-76400000D01*
X117940809Y-76381093D01*
X117904845Y-76331593D01*
X117900000Y-76301000D01*
X117900000Y-76299000D01*
X117918907Y-76240809D01*
X117968407Y-76204845D01*
X117999000Y-76200000D01*
X118628993Y-76200000D01*
X118687184Y-76218907D01*
G37*
%TD.AperFunction*%
%TA.AperFunction,Conductor*%
G36*
X125039191Y-71518907D02*
G01*
X125075155Y-71568407D01*
X125080000Y-71599000D01*
X125080000Y-72601000D01*
X125061093Y-72659191D01*
X125011593Y-72695155D01*
X124981000Y-72700000D01*
X124979000Y-72700000D01*
X124920809Y-72681093D01*
X124884845Y-72631593D01*
X124880000Y-72601000D01*
X124880000Y-71599000D01*
X124898907Y-71540809D01*
X124948407Y-71504845D01*
X124979000Y-71500000D01*
X124981000Y-71500000D01*
X125039191Y-71518907D01*
G37*
%TD.AperFunction*%
%TA.AperFunction,Conductor*%
G36*
X116360274Y-67019407D02*
G01*
X116391806Y-67057659D01*
X116396776Y-67068316D01*
X116481684Y-67153224D01*
X116481685Y-67153224D01*
X116487809Y-67159348D01*
X116485762Y-67161394D01*
X116514106Y-67199006D01*
X116519500Y-67231239D01*
X116519500Y-67541671D01*
X116517598Y-67560982D01*
X116517477Y-67561589D01*
X116517476Y-67561601D01*
X116517476Y-67992067D01*
X116517181Y-67996316D01*
X116517423Y-68001548D01*
X116517476Y-68003831D01*
X116517476Y-68475500D01*
X116498569Y-68533691D01*
X116449069Y-68569655D01*
X116418476Y-68574500D01*
X115504578Y-68574500D01*
X115504571Y-68574501D01*
X115427859Y-68589759D01*
X115424649Y-68591904D01*
X115423287Y-68592814D01*
X115368285Y-68609500D01*
X115134976Y-68609500D01*
X115076785Y-68590593D01*
X115064972Y-68580504D01*
X115064065Y-68579597D01*
X115064065Y-68579596D01*
X114980404Y-68495935D01*
X114980402Y-68495934D01*
X114980401Y-68495933D01*
X114966490Y-68489446D01*
X114921743Y-68447717D01*
X114910070Y-68387655D01*
X114935930Y-68332203D01*
X114966497Y-68309997D01*
X114980110Y-68303649D01*
X115063650Y-68220109D01*
X115113574Y-68113047D01*
X115113576Y-68113040D01*
X115120000Y-68064253D01*
X115120000Y-67990001D01*
X115119999Y-67990000D01*
X114599000Y-67990000D01*
X114540809Y-67971093D01*
X114504845Y-67921593D01*
X114500000Y-67891000D01*
X114500000Y-67889000D01*
X114518907Y-67830809D01*
X114568407Y-67794845D01*
X114599000Y-67790000D01*
X115119998Y-67790000D01*
X115119999Y-67789998D01*
X115119999Y-67715749D01*
X115119998Y-67715739D01*
X115113577Y-67666958D01*
X115063650Y-67559890D01*
X114980109Y-67476349D01*
X114873047Y-67426425D01*
X114873040Y-67426423D01*
X114824254Y-67420000D01*
X114798794Y-67420000D01*
X114740603Y-67401093D01*
X114704639Y-67351593D01*
X114704639Y-67290407D01*
X114728789Y-67250998D01*
X114950291Y-67029496D01*
X115004808Y-67001719D01*
X115020295Y-67000500D01*
X116302083Y-67000500D01*
X116360274Y-67019407D01*
G37*
%TD.AperFunction*%
%TA.AperFunction,Conductor*%
G36*
X117345299Y-67062983D02*
G01*
X117370358Y-67081189D01*
X117441979Y-67152810D01*
X117449071Y-67157776D01*
X117447123Y-67160557D01*
X117480396Y-67191572D01*
X117492084Y-67251631D01*
X117466237Y-67307089D01*
X117456625Y-67316113D01*
X117442976Y-67327314D01*
X117442976Y-68063500D01*
X117424069Y-68121691D01*
X117374569Y-68157655D01*
X117343976Y-68162500D01*
X117341976Y-68162500D01*
X117283785Y-68143593D01*
X117247821Y-68094093D01*
X117242976Y-68063500D01*
X117242976Y-67327315D01*
X117242974Y-67327314D01*
X117239197Y-67328066D01*
X117178436Y-67320873D01*
X117133507Y-67279340D01*
X117121571Y-67219330D01*
X117147189Y-67163765D01*
X117152218Y-67159375D01*
X117152191Y-67159348D01*
X117158314Y-67153224D01*
X117158316Y-67153224D01*
X117230352Y-67081187D01*
X117284867Y-67053412D01*
X117345299Y-67062983D01*
G37*
%TD.AperFunction*%
%TA.AperFunction,Conductor*%
G36*
X119543675Y-66409407D02*
G01*
X119579639Y-66458907D01*
X119579639Y-66520093D01*
X119543675Y-66569593D01*
X119539007Y-66572784D01*
X119468873Y-66617855D01*
X119374622Y-66726628D01*
X119314834Y-66857543D01*
X119294353Y-66999997D01*
X119294353Y-67000002D01*
X119314833Y-67142454D01*
X119334227Y-67184920D01*
X119341201Y-67245707D01*
X119311114Y-67298984D01*
X119259177Y-67322702D01*
X119259346Y-67323552D01*
X119255751Y-67324266D01*
X119255458Y-67324401D01*
X119254638Y-67324488D01*
X119177860Y-67339759D01*
X119147976Y-67359727D01*
X119089087Y-67376334D01*
X119037975Y-67359726D01*
X119008095Y-67339761D01*
X119008093Y-67339760D01*
X119008090Y-67339759D01*
X119008089Y-67339759D01*
X118931386Y-67324501D01*
X118931378Y-67324500D01*
X118931377Y-67324500D01*
X118931376Y-67324500D01*
X118754578Y-67324500D01*
X118754571Y-67324501D01*
X118677860Y-67339759D01*
X118647976Y-67359727D01*
X118589087Y-67376334D01*
X118537975Y-67359726D01*
X118508095Y-67339761D01*
X118508093Y-67339760D01*
X118508090Y-67339759D01*
X118508089Y-67339759D01*
X118431386Y-67324501D01*
X118431378Y-67324500D01*
X118431377Y-67324500D01*
X118431376Y-67324500D01*
X118254578Y-67324500D01*
X118254568Y-67324501D01*
X118179670Y-67339399D01*
X118118909Y-67332207D01*
X118073980Y-67290673D01*
X118062044Y-67230663D01*
X118087661Y-67175099D01*
X118111087Y-67158001D01*
X118110929Y-67157776D01*
X118118020Y-67152810D01*
X118202809Y-67068021D01*
X118253478Y-66959361D01*
X118253480Y-66959354D01*
X118260000Y-66909838D01*
X118260000Y-66800000D01*
X117779000Y-66800000D01*
X117720809Y-66781093D01*
X117684845Y-66731593D01*
X117680000Y-66701000D01*
X117680000Y-66699000D01*
X117698907Y-66640809D01*
X117748407Y-66604845D01*
X117779000Y-66600000D01*
X118259999Y-66600000D01*
X118260000Y-66599998D01*
X118260000Y-66489500D01*
X118278907Y-66431309D01*
X118328407Y-66395345D01*
X118359000Y-66390500D01*
X119485484Y-66390500D01*
X119543675Y-66409407D01*
G37*
%TD.AperFunction*%
%TD*%
M02*
