%TF.GenerationSoftware,KiCad,Pcbnew,7.0.6*%
%TF.CreationDate,2024-02-16T19:59:29+01:00*%
%TF.ProjectId,minitari,6d696e69-7461-4726-992e-6b696361645f,rev?*%
%TF.SameCoordinates,Original*%
%TF.FileFunction,Soldermask,Bot*%
%TF.FilePolarity,Negative*%
%FSLAX46Y46*%
G04 Gerber Fmt 4.6, Leading zero omitted, Abs format (unit mm)*
G04 Created by KiCad (PCBNEW 7.0.6) date 2024-02-16 19:59:29*
%MOMM*%
%LPD*%
G01*
G04 APERTURE LIST*
G04 Aperture macros list*
%AMRoundRect*
0 Rectangle with rounded corners*
0 $1 Rounding radius*
0 $2 $3 $4 $5 $6 $7 $8 $9 X,Y pos of 4 corners*
0 Add a 4 corners polygon primitive as box body*
4,1,4,$2,$3,$4,$5,$6,$7,$8,$9,$2,$3,0*
0 Add four circle primitives for the rounded corners*
1,1,$1+$1,$2,$3*
1,1,$1+$1,$4,$5*
1,1,$1+$1,$6,$7*
1,1,$1+$1,$8,$9*
0 Add four rect primitives between the rounded corners*
20,1,$1+$1,$2,$3,$4,$5,0*
20,1,$1+$1,$4,$5,$6,$7,0*
20,1,$1+$1,$6,$7,$8,$9,0*
20,1,$1+$1,$8,$9,$2,$3,0*%
G04 Aperture macros list end*
%ADD10RoundRect,0.135000X0.185000X-0.135000X0.185000X0.135000X-0.185000X0.135000X-0.185000X-0.135000X0*%
%ADD11RoundRect,0.140000X-0.140000X-0.170000X0.140000X-0.170000X0.140000X0.170000X-0.140000X0.170000X0*%
%ADD12RoundRect,0.135000X-0.135000X-0.185000X0.135000X-0.185000X0.135000X0.185000X-0.135000X0.185000X0*%
%ADD13RoundRect,0.140000X0.140000X0.170000X-0.140000X0.170000X-0.140000X-0.170000X0.140000X-0.170000X0*%
%ADD14RoundRect,0.135000X-0.185000X0.135000X-0.185000X-0.135000X0.185000X-0.135000X0.185000X0.135000X0*%
%ADD15RoundRect,0.135000X0.135000X0.185000X-0.135000X0.185000X-0.135000X-0.185000X0.135000X-0.185000X0*%
%ADD16RoundRect,0.062500X0.475000X0.062500X-0.475000X0.062500X-0.475000X-0.062500X0.475000X-0.062500X0*%
%ADD17RoundRect,0.062500X0.062500X0.475000X-0.062500X0.475000X-0.062500X-0.475000X0.062500X-0.475000X0*%
%ADD18R,5.200000X5.200000*%
%ADD19RoundRect,0.140000X-0.170000X0.140000X-0.170000X-0.140000X0.170000X-0.140000X0.170000X0.140000X0*%
%ADD20RoundRect,0.140000X0.170000X-0.140000X0.170000X0.140000X-0.170000X0.140000X-0.170000X-0.140000X0*%
%ADD21R,0.500000X1.000000*%
%ADD22R,0.900000X0.800000*%
G04 APERTURE END LIST*
D10*
%TO.C,R4*%
X114600000Y-68910000D03*
X114600000Y-67890000D03*
%TD*%
D11*
%TO.C,C4*%
X116820000Y-66700000D03*
X117780000Y-66700000D03*
%TD*%
D12*
%TO.C,R2*%
X124090000Y-69500000D03*
X125110000Y-69500000D03*
%TD*%
D13*
%TO.C,C3*%
X124980000Y-71600000D03*
X124020000Y-71600000D03*
%TD*%
%TO.C,C7*%
X124980000Y-72600000D03*
X124020000Y-72600000D03*
%TD*%
D11*
%TO.C,C6*%
X124120000Y-68500000D03*
X125080000Y-68500000D03*
%TD*%
D14*
%TO.C,R5*%
X114600000Y-69890000D03*
X114600000Y-70910000D03*
%TD*%
D15*
%TO.C,R1*%
X125010000Y-70600000D03*
X123990000Y-70600000D03*
%TD*%
D16*
%TO.C,U1*%
X122680476Y-68900000D03*
X122680476Y-69400000D03*
X122680476Y-69900000D03*
X122680476Y-70400000D03*
X122680476Y-70900000D03*
X122680476Y-71400000D03*
X122680476Y-71900000D03*
X122680476Y-72400000D03*
X122680476Y-72900000D03*
X122680476Y-73400000D03*
X122680476Y-73900000D03*
D17*
X121842976Y-74737500D03*
X121342976Y-74737500D03*
X120842976Y-74737500D03*
X120342976Y-74737500D03*
X119842976Y-74737500D03*
X119342976Y-74737500D03*
X118842976Y-74737500D03*
X118342976Y-74737500D03*
X117842976Y-74737500D03*
X117342976Y-74737500D03*
X116842976Y-74737500D03*
D16*
X116005476Y-73900000D03*
X116005476Y-73400000D03*
X116005476Y-72900000D03*
X116005476Y-72400000D03*
X116005476Y-71900000D03*
X116005476Y-71400000D03*
X116005476Y-70900000D03*
X116005476Y-70400000D03*
X116005476Y-69900000D03*
X116005476Y-69400000D03*
X116005476Y-68900000D03*
D17*
X116842976Y-68062500D03*
X117342976Y-68062500D03*
X117842976Y-68062500D03*
X118342976Y-68062500D03*
X118842976Y-68062500D03*
X119342976Y-68062500D03*
X119842976Y-68062500D03*
X120342976Y-68062500D03*
X120842976Y-68062500D03*
X121342976Y-68062500D03*
X121842976Y-68062500D03*
D18*
X119342976Y-71400000D03*
%TD*%
D19*
%TO.C,C2*%
X119200000Y-76320000D03*
X119200000Y-77280000D03*
%TD*%
D20*
%TO.C,C1*%
X115400000Y-77280000D03*
X115400000Y-76320000D03*
%TD*%
%TO.C,C8*%
X120900000Y-77380000D03*
X120900000Y-76420000D03*
%TD*%
D21*
%TO.C,J2*%
X125450000Y-77600000D03*
X124050000Y-77600000D03*
X124750000Y-77600000D03*
X122650000Y-77600000D03*
X123350000Y-77600000D03*
X121950000Y-77600000D03*
%TD*%
D22*
%TO.C,Y1*%
X118000000Y-77400000D03*
X116600000Y-77400000D03*
X116600000Y-76300000D03*
X118000000Y-76300000D03*
%TD*%
D15*
%TO.C,R3*%
X123110000Y-76100000D03*
X122090000Y-76100000D03*
%TD*%
M02*
