%TF.GenerationSoftware,KiCad,Pcbnew,7.0.6*%
%TF.CreationDate,2024-02-16T19:59:29+01:00*%
%TF.ProjectId,minitari,6d696e69-7461-4726-992e-6b696361645f,rev?*%
%TF.SameCoordinates,Original*%
%TF.FileFunction,Legend,Top*%
%TF.FilePolarity,Positive*%
%FSLAX46Y46*%
G04 Gerber Fmt 4.6, Leading zero omitted, Abs format (unit mm)*
G04 Created by KiCad (PCBNEW 7.0.6) date 2024-02-16 19:59:29*
%MOMM*%
%LPD*%
G01*
G04 APERTURE LIST*
%ADD10C,0.120000*%
%ADD11C,0.100000*%
G04 APERTURE END LIST*
D10*
%TO.C,SW3*%
X124218198Y-68137437D02*
X122662563Y-66581802D01*
X123546447Y-65627208D02*
X125137437Y-67218198D01*
D11*
%TO.C,D1*%
X123540000Y-77600000D02*
G75*
G03*
X123540000Y-77600000I-50000J0D01*
G01*
D10*
%TO.C,SW1*%
X125268986Y-70339340D02*
X125268986Y-72460660D01*
X124137615Y-69207969D02*
X125268986Y-70339340D01*
X121592031Y-66662385D02*
X120460660Y-65531014D01*
X120460660Y-65531014D02*
X118339340Y-65531014D01*
X125268986Y-72460660D02*
X124703301Y-73026346D01*
X118339340Y-65531014D02*
X117773654Y-66096699D01*
X120637437Y-70869670D02*
X122051650Y-70869670D01*
X119930330Y-70162563D02*
X119930330Y-68748350D01*
X120637437Y-71930330D02*
X122051650Y-71930330D01*
X118869670Y-70162563D02*
X118869670Y-68748350D01*
X119930330Y-72637437D02*
X119930330Y-74051650D01*
X118162563Y-70869670D02*
X116748350Y-70869670D01*
X118869670Y-72637437D02*
X118869670Y-74051650D01*
X118162563Y-71930330D02*
X116748350Y-71930330D01*
X120460660Y-77268986D02*
X121026346Y-76703301D01*
X113531014Y-70339340D02*
X114096699Y-69773654D01*
X118339340Y-77268986D02*
X120460660Y-77268986D01*
X117207969Y-76137615D02*
X118339340Y-77268986D01*
X114662385Y-73592031D02*
X113531014Y-72460660D01*
X113531014Y-72460660D02*
X113531014Y-70339340D01*
X124336054Y-71382322D02*
G75*
G03*
X124336054Y-71382322I-1100000J0D01*
G01*
X120482322Y-67528590D02*
G75*
G03*
X120482322Y-67528590I-1100000J0D01*
G01*
X120499999Y-71400000D02*
G75*
G03*
X120499999Y-71400000I-1099999J0D01*
G01*
X120517678Y-75271410D02*
G75*
G03*
X120517678Y-75271410I-1100000J0D01*
G01*
X116610913Y-71400000D02*
G75*
G03*
X116610913Y-71400000I-1100000J0D01*
G01*
%TD*%
M02*
