%TF.GenerationSoftware,KiCad,Pcbnew,7.0.6*%
%TF.CreationDate,2024-02-16T19:59:31+01:00*%
%TF.ProjectId,minitari,6d696e69-7461-4726-992e-6b696361645f,rev?*%
%TF.SameCoordinates,Original*%
%TF.FileFunction,Drillmap*%
%TF.FilePolarity,Positive*%
%FSLAX45Y45*%
G04 Gerber Fmt 4.5, Leading zero omitted, Abs format (unit mm)*
G04 Created by KiCad (PCBNEW 7.0.6) date 2024-02-16 19:59:31*
%MOMM*%
%LPD*%
G01*
G04 APERTURE LIST*
%ADD10C,0.100000*%
%ADD11C,0.200000*%
%ADD12C,0.020000*%
G04 APERTURE END LIST*
D10*
X11234298Y-6440000D02*
X12634298Y-6440000D01*
X12634298Y-7840000D01*
X11234298Y-7840000D01*
X11234298Y-6440000D01*
D11*
D12*
X11380000Y-7090000D02*
X11400000Y-7110000D01*
X11400000Y-7090000D02*
X11380000Y-7110000D01*
X11480000Y-7280000D02*
X11500000Y-7300000D01*
X11500000Y-7280000D02*
X11480000Y-7300000D01*
X11530000Y-7550000D02*
X11550000Y-7570000D01*
X11550000Y-7550000D02*
X11530000Y-7570000D01*
X11790000Y-7620000D02*
X11810000Y-7640000D01*
X11810000Y-7620000D02*
X11790000Y-7640000D01*
X11930000Y-7130000D02*
X11950000Y-7150000D01*
X11950000Y-7130000D02*
X11930000Y-7150000D01*
X11970000Y-6690000D02*
X11990000Y-6710000D01*
X11990000Y-6690000D02*
X11970000Y-6710000D01*
X12000000Y-7750000D02*
X12020000Y-7770000D01*
X12020000Y-7750000D02*
X12000000Y-7770000D01*
X12045807Y-7565807D02*
X12065807Y-7585807D01*
X12065807Y-7565807D02*
X12045807Y-7585807D01*
X12202399Y-6696972D02*
X12222399Y-6716972D01*
X12222399Y-6696972D02*
X12202399Y-6716972D01*
X12240000Y-6817550D02*
X12260000Y-6837550D01*
X12260000Y-6817550D02*
X12240000Y-6837550D01*
X12276482Y-7476482D02*
X12296482Y-7496482D01*
X12296482Y-7476482D02*
X12276482Y-7496482D01*
X12300000Y-7600000D02*
X12320000Y-7620000D01*
X12320000Y-7600000D02*
X12300000Y-7620000D01*
X12361615Y-7390111D02*
X12381615Y-7410111D01*
X12381615Y-7390111D02*
X12361615Y-7410111D01*
X12377010Y-7234664D02*
X12397010Y-7254664D01*
X12397010Y-7234664D02*
X12377010Y-7254664D01*
X12490000Y-7150000D02*
X12510000Y-7170000D01*
X12510000Y-7150000D02*
X12490000Y-7170000D01*
X12501000Y-6940000D02*
X12521000Y-6960000D01*
X12521000Y-6940000D02*
X12501000Y-6960000D01*
X12510000Y-7480000D02*
X12530000Y-7500000D01*
X12530000Y-7480000D02*
X12510000Y-7500000D01*
X12510050Y-7576354D02*
X12530050Y-7596354D01*
X12530050Y-7576354D02*
X12510050Y-7596354D01*
D11*
X11490074Y-8156484D02*
X11490074Y-7956484D01*
X11490074Y-7956484D02*
X11537693Y-7956484D01*
X11537693Y-7956484D02*
X11566265Y-7966008D01*
X11566265Y-7966008D02*
X11585312Y-7985055D01*
X11585312Y-7985055D02*
X11594836Y-8004103D01*
X11594836Y-8004103D02*
X11604360Y-8042198D01*
X11604360Y-8042198D02*
X11604360Y-8070769D01*
X11604360Y-8070769D02*
X11594836Y-8108865D01*
X11594836Y-8108865D02*
X11585312Y-8127912D01*
X11585312Y-8127912D02*
X11566265Y-8146960D01*
X11566265Y-8146960D02*
X11537693Y-8156484D01*
X11537693Y-8156484D02*
X11490074Y-8156484D01*
X11690074Y-8156484D02*
X11690074Y-8023150D01*
X11690074Y-8061246D02*
X11699598Y-8042198D01*
X11699598Y-8042198D02*
X11709122Y-8032674D01*
X11709122Y-8032674D02*
X11728170Y-8023150D01*
X11728170Y-8023150D02*
X11747217Y-8023150D01*
X11813884Y-8156484D02*
X11813884Y-8023150D01*
X11813884Y-7956484D02*
X11804360Y-7966008D01*
X11804360Y-7966008D02*
X11813884Y-7975531D01*
X11813884Y-7975531D02*
X11823408Y-7966008D01*
X11823408Y-7966008D02*
X11813884Y-7956484D01*
X11813884Y-7956484D02*
X11813884Y-7975531D01*
X11937693Y-8156484D02*
X11918646Y-8146960D01*
X11918646Y-8146960D02*
X11909122Y-8127912D01*
X11909122Y-8127912D02*
X11909122Y-7956484D01*
X12042455Y-8156484D02*
X12023408Y-8146960D01*
X12023408Y-8146960D02*
X12013884Y-8127912D01*
X12013884Y-8127912D02*
X12013884Y-7956484D01*
X12271027Y-8156484D02*
X12271027Y-7956484D01*
X12271027Y-7956484D02*
X12337693Y-8099341D01*
X12337693Y-8099341D02*
X12404360Y-7956484D01*
X12404360Y-7956484D02*
X12404360Y-8156484D01*
X12585312Y-8156484D02*
X12585312Y-8051722D01*
X12585312Y-8051722D02*
X12575789Y-8032674D01*
X12575789Y-8032674D02*
X12556741Y-8023150D01*
X12556741Y-8023150D02*
X12518646Y-8023150D01*
X12518646Y-8023150D02*
X12499598Y-8032674D01*
X12585312Y-8146960D02*
X12566265Y-8156484D01*
X12566265Y-8156484D02*
X12518646Y-8156484D01*
X12518646Y-8156484D02*
X12499598Y-8146960D01*
X12499598Y-8146960D02*
X12490074Y-8127912D01*
X12490074Y-8127912D02*
X12490074Y-8108865D01*
X12490074Y-8108865D02*
X12499598Y-8089817D01*
X12499598Y-8089817D02*
X12518646Y-8080293D01*
X12518646Y-8080293D02*
X12566265Y-8080293D01*
X12566265Y-8080293D02*
X12585312Y-8070769D01*
X12680551Y-8023150D02*
X12680551Y-8223150D01*
X12680551Y-8032674D02*
X12699598Y-8023150D01*
X12699598Y-8023150D02*
X12737693Y-8023150D01*
X12737693Y-8023150D02*
X12756741Y-8032674D01*
X12756741Y-8032674D02*
X12766265Y-8042198D01*
X12766265Y-8042198D02*
X12775789Y-8061246D01*
X12775789Y-8061246D02*
X12775789Y-8118388D01*
X12775789Y-8118388D02*
X12766265Y-8137436D01*
X12766265Y-8137436D02*
X12756741Y-8146960D01*
X12756741Y-8146960D02*
X12737693Y-8156484D01*
X12737693Y-8156484D02*
X12699598Y-8156484D01*
X12699598Y-8156484D02*
X12680551Y-8146960D01*
X12861503Y-8137436D02*
X12871027Y-8146960D01*
X12871027Y-8146960D02*
X12861503Y-8156484D01*
X12861503Y-8156484D02*
X12851979Y-8146960D01*
X12851979Y-8146960D02*
X12861503Y-8137436D01*
X12861503Y-8137436D02*
X12861503Y-8156484D01*
X12861503Y-8032674D02*
X12871027Y-8042198D01*
X12871027Y-8042198D02*
X12861503Y-8051722D01*
X12861503Y-8051722D02*
X12851979Y-8042198D01*
X12851979Y-8042198D02*
X12861503Y-8032674D01*
X12861503Y-8032674D02*
X12861503Y-8051722D01*
D12*
X11209298Y-8475000D02*
X11229298Y-8495000D01*
X11229298Y-8475000D02*
X11209298Y-8495000D01*
D11*
X11528170Y-8376484D02*
X11547217Y-8376484D01*
X11547217Y-8376484D02*
X11566265Y-8386008D01*
X11566265Y-8386008D02*
X11575789Y-8395531D01*
X11575789Y-8395531D02*
X11585312Y-8414579D01*
X11585312Y-8414579D02*
X11594836Y-8452674D01*
X11594836Y-8452674D02*
X11594836Y-8500293D01*
X11594836Y-8500293D02*
X11585312Y-8538389D01*
X11585312Y-8538389D02*
X11575789Y-8557436D01*
X11575789Y-8557436D02*
X11566265Y-8566960D01*
X11566265Y-8566960D02*
X11547217Y-8576484D01*
X11547217Y-8576484D02*
X11528170Y-8576484D01*
X11528170Y-8576484D02*
X11509122Y-8566960D01*
X11509122Y-8566960D02*
X11499598Y-8557436D01*
X11499598Y-8557436D02*
X11490074Y-8538389D01*
X11490074Y-8538389D02*
X11480551Y-8500293D01*
X11480551Y-8500293D02*
X11480551Y-8452674D01*
X11480551Y-8452674D02*
X11490074Y-8414579D01*
X11490074Y-8414579D02*
X11499598Y-8395531D01*
X11499598Y-8395531D02*
X11509122Y-8386008D01*
X11509122Y-8386008D02*
X11528170Y-8376484D01*
X11680551Y-8557436D02*
X11690074Y-8566960D01*
X11690074Y-8566960D02*
X11680551Y-8576484D01*
X11680551Y-8576484D02*
X11671027Y-8566960D01*
X11671027Y-8566960D02*
X11680551Y-8557436D01*
X11680551Y-8557436D02*
X11680551Y-8576484D01*
X11766265Y-8395531D02*
X11775789Y-8386008D01*
X11775789Y-8386008D02*
X11794836Y-8376484D01*
X11794836Y-8376484D02*
X11842455Y-8376484D01*
X11842455Y-8376484D02*
X11861503Y-8386008D01*
X11861503Y-8386008D02*
X11871027Y-8395531D01*
X11871027Y-8395531D02*
X11880551Y-8414579D01*
X11880551Y-8414579D02*
X11880551Y-8433627D01*
X11880551Y-8433627D02*
X11871027Y-8462198D01*
X11871027Y-8462198D02*
X11756741Y-8576484D01*
X11756741Y-8576484D02*
X11880551Y-8576484D01*
X12004360Y-8376484D02*
X12023408Y-8376484D01*
X12023408Y-8376484D02*
X12042455Y-8386008D01*
X12042455Y-8386008D02*
X12051979Y-8395531D01*
X12051979Y-8395531D02*
X12061503Y-8414579D01*
X12061503Y-8414579D02*
X12071027Y-8452674D01*
X12071027Y-8452674D02*
X12071027Y-8500293D01*
X12071027Y-8500293D02*
X12061503Y-8538389D01*
X12061503Y-8538389D02*
X12051979Y-8557436D01*
X12051979Y-8557436D02*
X12042455Y-8566960D01*
X12042455Y-8566960D02*
X12023408Y-8576484D01*
X12023408Y-8576484D02*
X12004360Y-8576484D01*
X12004360Y-8576484D02*
X11985312Y-8566960D01*
X11985312Y-8566960D02*
X11975789Y-8557436D01*
X11975789Y-8557436D02*
X11966265Y-8538389D01*
X11966265Y-8538389D02*
X11956741Y-8500293D01*
X11956741Y-8500293D02*
X11956741Y-8452674D01*
X11956741Y-8452674D02*
X11966265Y-8414579D01*
X11966265Y-8414579D02*
X11975789Y-8395531D01*
X11975789Y-8395531D02*
X11985312Y-8386008D01*
X11985312Y-8386008D02*
X12004360Y-8376484D01*
X12194836Y-8376484D02*
X12213884Y-8376484D01*
X12213884Y-8376484D02*
X12232932Y-8386008D01*
X12232932Y-8386008D02*
X12242455Y-8395531D01*
X12242455Y-8395531D02*
X12251979Y-8414579D01*
X12251979Y-8414579D02*
X12261503Y-8452674D01*
X12261503Y-8452674D02*
X12261503Y-8500293D01*
X12261503Y-8500293D02*
X12251979Y-8538389D01*
X12251979Y-8538389D02*
X12242455Y-8557436D01*
X12242455Y-8557436D02*
X12232932Y-8566960D01*
X12232932Y-8566960D02*
X12213884Y-8576484D01*
X12213884Y-8576484D02*
X12194836Y-8576484D01*
X12194836Y-8576484D02*
X12175789Y-8566960D01*
X12175789Y-8566960D02*
X12166265Y-8557436D01*
X12166265Y-8557436D02*
X12156741Y-8538389D01*
X12156741Y-8538389D02*
X12147217Y-8500293D01*
X12147217Y-8500293D02*
X12147217Y-8452674D01*
X12147217Y-8452674D02*
X12156741Y-8414579D01*
X12156741Y-8414579D02*
X12166265Y-8395531D01*
X12166265Y-8395531D02*
X12175789Y-8386008D01*
X12175789Y-8386008D02*
X12194836Y-8376484D01*
X12347217Y-8576484D02*
X12347217Y-8443150D01*
X12347217Y-8462198D02*
X12356741Y-8452674D01*
X12356741Y-8452674D02*
X12375789Y-8443150D01*
X12375789Y-8443150D02*
X12404360Y-8443150D01*
X12404360Y-8443150D02*
X12423408Y-8452674D01*
X12423408Y-8452674D02*
X12432932Y-8471722D01*
X12432932Y-8471722D02*
X12432932Y-8576484D01*
X12432932Y-8471722D02*
X12442455Y-8452674D01*
X12442455Y-8452674D02*
X12461503Y-8443150D01*
X12461503Y-8443150D02*
X12490074Y-8443150D01*
X12490074Y-8443150D02*
X12509122Y-8452674D01*
X12509122Y-8452674D02*
X12518646Y-8471722D01*
X12518646Y-8471722D02*
X12518646Y-8576484D01*
X12613884Y-8576484D02*
X12613884Y-8443150D01*
X12613884Y-8462198D02*
X12623408Y-8452674D01*
X12623408Y-8452674D02*
X12642455Y-8443150D01*
X12642455Y-8443150D02*
X12671027Y-8443150D01*
X12671027Y-8443150D02*
X12690074Y-8452674D01*
X12690074Y-8452674D02*
X12699598Y-8471722D01*
X12699598Y-8471722D02*
X12699598Y-8576484D01*
X12699598Y-8471722D02*
X12709122Y-8452674D01*
X12709122Y-8452674D02*
X12728170Y-8443150D01*
X12728170Y-8443150D02*
X12756741Y-8443150D01*
X12756741Y-8443150D02*
X12775789Y-8452674D01*
X12775789Y-8452674D02*
X12785313Y-8471722D01*
X12785313Y-8471722D02*
X12785313Y-8576484D01*
X13175789Y-8366960D02*
X13004360Y-8624103D01*
X13432932Y-8376484D02*
X13451979Y-8376484D01*
X13451979Y-8376484D02*
X13471027Y-8386008D01*
X13471027Y-8386008D02*
X13480551Y-8395531D01*
X13480551Y-8395531D02*
X13490075Y-8414579D01*
X13490075Y-8414579D02*
X13499598Y-8452674D01*
X13499598Y-8452674D02*
X13499598Y-8500293D01*
X13499598Y-8500293D02*
X13490075Y-8538389D01*
X13490075Y-8538389D02*
X13480551Y-8557436D01*
X13480551Y-8557436D02*
X13471027Y-8566960D01*
X13471027Y-8566960D02*
X13451979Y-8576484D01*
X13451979Y-8576484D02*
X13432932Y-8576484D01*
X13432932Y-8576484D02*
X13413884Y-8566960D01*
X13413884Y-8566960D02*
X13404360Y-8557436D01*
X13404360Y-8557436D02*
X13394836Y-8538389D01*
X13394836Y-8538389D02*
X13385313Y-8500293D01*
X13385313Y-8500293D02*
X13385313Y-8452674D01*
X13385313Y-8452674D02*
X13394836Y-8414579D01*
X13394836Y-8414579D02*
X13404360Y-8395531D01*
X13404360Y-8395531D02*
X13413884Y-8386008D01*
X13413884Y-8386008D02*
X13432932Y-8376484D01*
X13585313Y-8557436D02*
X13594836Y-8566960D01*
X13594836Y-8566960D02*
X13585313Y-8576484D01*
X13585313Y-8576484D02*
X13575789Y-8566960D01*
X13575789Y-8566960D02*
X13585313Y-8557436D01*
X13585313Y-8557436D02*
X13585313Y-8576484D01*
X13718646Y-8376484D02*
X13737694Y-8376484D01*
X13737694Y-8376484D02*
X13756741Y-8386008D01*
X13756741Y-8386008D02*
X13766265Y-8395531D01*
X13766265Y-8395531D02*
X13775789Y-8414579D01*
X13775789Y-8414579D02*
X13785313Y-8452674D01*
X13785313Y-8452674D02*
X13785313Y-8500293D01*
X13785313Y-8500293D02*
X13775789Y-8538389D01*
X13775789Y-8538389D02*
X13766265Y-8557436D01*
X13766265Y-8557436D02*
X13756741Y-8566960D01*
X13756741Y-8566960D02*
X13737694Y-8576484D01*
X13737694Y-8576484D02*
X13718646Y-8576484D01*
X13718646Y-8576484D02*
X13699598Y-8566960D01*
X13699598Y-8566960D02*
X13690075Y-8557436D01*
X13690075Y-8557436D02*
X13680551Y-8538389D01*
X13680551Y-8538389D02*
X13671027Y-8500293D01*
X13671027Y-8500293D02*
X13671027Y-8452674D01*
X13671027Y-8452674D02*
X13680551Y-8414579D01*
X13680551Y-8414579D02*
X13690075Y-8395531D01*
X13690075Y-8395531D02*
X13699598Y-8386008D01*
X13699598Y-8386008D02*
X13718646Y-8376484D01*
X13909122Y-8376484D02*
X13928170Y-8376484D01*
X13928170Y-8376484D02*
X13947217Y-8386008D01*
X13947217Y-8386008D02*
X13956741Y-8395531D01*
X13956741Y-8395531D02*
X13966265Y-8414579D01*
X13966265Y-8414579D02*
X13975789Y-8452674D01*
X13975789Y-8452674D02*
X13975789Y-8500293D01*
X13975789Y-8500293D02*
X13966265Y-8538389D01*
X13966265Y-8538389D02*
X13956741Y-8557436D01*
X13956741Y-8557436D02*
X13947217Y-8566960D01*
X13947217Y-8566960D02*
X13928170Y-8576484D01*
X13928170Y-8576484D02*
X13909122Y-8576484D01*
X13909122Y-8576484D02*
X13890075Y-8566960D01*
X13890075Y-8566960D02*
X13880551Y-8557436D01*
X13880551Y-8557436D02*
X13871027Y-8538389D01*
X13871027Y-8538389D02*
X13861503Y-8500293D01*
X13861503Y-8500293D02*
X13861503Y-8452674D01*
X13861503Y-8452674D02*
X13871027Y-8414579D01*
X13871027Y-8414579D02*
X13880551Y-8395531D01*
X13880551Y-8395531D02*
X13890075Y-8386008D01*
X13890075Y-8386008D02*
X13909122Y-8376484D01*
X14042456Y-8376484D02*
X14175789Y-8376484D01*
X14175789Y-8376484D02*
X14090075Y-8576484D01*
X14261503Y-8576484D02*
X14299598Y-8576484D01*
X14299598Y-8576484D02*
X14318646Y-8566960D01*
X14318646Y-8566960D02*
X14328170Y-8557436D01*
X14328170Y-8557436D02*
X14347217Y-8528865D01*
X14347217Y-8528865D02*
X14356741Y-8490770D01*
X14356741Y-8490770D02*
X14356741Y-8414579D01*
X14356741Y-8414579D02*
X14347217Y-8395531D01*
X14347217Y-8395531D02*
X14337694Y-8386008D01*
X14337694Y-8386008D02*
X14318646Y-8376484D01*
X14318646Y-8376484D02*
X14280551Y-8376484D01*
X14280551Y-8376484D02*
X14261503Y-8386008D01*
X14261503Y-8386008D02*
X14251979Y-8395531D01*
X14251979Y-8395531D02*
X14242456Y-8414579D01*
X14242456Y-8414579D02*
X14242456Y-8462198D01*
X14242456Y-8462198D02*
X14251979Y-8481246D01*
X14251979Y-8481246D02*
X14261503Y-8490770D01*
X14261503Y-8490770D02*
X14280551Y-8500293D01*
X14280551Y-8500293D02*
X14318646Y-8500293D01*
X14318646Y-8500293D02*
X14337694Y-8490770D01*
X14337694Y-8490770D02*
X14347217Y-8481246D01*
X14347217Y-8481246D02*
X14356741Y-8462198D01*
X14432932Y-8376484D02*
X14432932Y-8414579D01*
X14509122Y-8376484D02*
X14509122Y-8414579D01*
X14804360Y-8652674D02*
X14794837Y-8643150D01*
X14794837Y-8643150D02*
X14775789Y-8614579D01*
X14775789Y-8614579D02*
X14766265Y-8595531D01*
X14766265Y-8595531D02*
X14756741Y-8566960D01*
X14756741Y-8566960D02*
X14747218Y-8519341D01*
X14747218Y-8519341D02*
X14747218Y-8481246D01*
X14747218Y-8481246D02*
X14756741Y-8433627D01*
X14756741Y-8433627D02*
X14766265Y-8405055D01*
X14766265Y-8405055D02*
X14775789Y-8386008D01*
X14775789Y-8386008D02*
X14794837Y-8357436D01*
X14794837Y-8357436D02*
X14804360Y-8347912D01*
X14985313Y-8576484D02*
X14871027Y-8576484D01*
X14928170Y-8576484D02*
X14928170Y-8376484D01*
X14928170Y-8376484D02*
X14909122Y-8405055D01*
X14909122Y-8405055D02*
X14890075Y-8424103D01*
X14890075Y-8424103D02*
X14871027Y-8433627D01*
X15099598Y-8462198D02*
X15080551Y-8452674D01*
X15080551Y-8452674D02*
X15071027Y-8443150D01*
X15071027Y-8443150D02*
X15061503Y-8424103D01*
X15061503Y-8424103D02*
X15061503Y-8414579D01*
X15061503Y-8414579D02*
X15071027Y-8395531D01*
X15071027Y-8395531D02*
X15080551Y-8386008D01*
X15080551Y-8386008D02*
X15099598Y-8376484D01*
X15099598Y-8376484D02*
X15137694Y-8376484D01*
X15137694Y-8376484D02*
X15156741Y-8386008D01*
X15156741Y-8386008D02*
X15166265Y-8395531D01*
X15166265Y-8395531D02*
X15175789Y-8414579D01*
X15175789Y-8414579D02*
X15175789Y-8424103D01*
X15175789Y-8424103D02*
X15166265Y-8443150D01*
X15166265Y-8443150D02*
X15156741Y-8452674D01*
X15156741Y-8452674D02*
X15137694Y-8462198D01*
X15137694Y-8462198D02*
X15099598Y-8462198D01*
X15099598Y-8462198D02*
X15080551Y-8471722D01*
X15080551Y-8471722D02*
X15071027Y-8481246D01*
X15071027Y-8481246D02*
X15061503Y-8500293D01*
X15061503Y-8500293D02*
X15061503Y-8538389D01*
X15061503Y-8538389D02*
X15071027Y-8557436D01*
X15071027Y-8557436D02*
X15080551Y-8566960D01*
X15080551Y-8566960D02*
X15099598Y-8576484D01*
X15099598Y-8576484D02*
X15137694Y-8576484D01*
X15137694Y-8576484D02*
X15156741Y-8566960D01*
X15156741Y-8566960D02*
X15166265Y-8557436D01*
X15166265Y-8557436D02*
X15175789Y-8538389D01*
X15175789Y-8538389D02*
X15175789Y-8500293D01*
X15175789Y-8500293D02*
X15166265Y-8481246D01*
X15166265Y-8481246D02*
X15156741Y-8471722D01*
X15156741Y-8471722D02*
X15137694Y-8462198D01*
X15413884Y-8576484D02*
X15413884Y-8376484D01*
X15499599Y-8576484D02*
X15499599Y-8471722D01*
X15499599Y-8471722D02*
X15490075Y-8452674D01*
X15490075Y-8452674D02*
X15471027Y-8443150D01*
X15471027Y-8443150D02*
X15442456Y-8443150D01*
X15442456Y-8443150D02*
X15423408Y-8452674D01*
X15423408Y-8452674D02*
X15413884Y-8462198D01*
X15623408Y-8576484D02*
X15604360Y-8566960D01*
X15604360Y-8566960D02*
X15594837Y-8557436D01*
X15594837Y-8557436D02*
X15585313Y-8538389D01*
X15585313Y-8538389D02*
X15585313Y-8481246D01*
X15585313Y-8481246D02*
X15594837Y-8462198D01*
X15594837Y-8462198D02*
X15604360Y-8452674D01*
X15604360Y-8452674D02*
X15623408Y-8443150D01*
X15623408Y-8443150D02*
X15651980Y-8443150D01*
X15651980Y-8443150D02*
X15671027Y-8452674D01*
X15671027Y-8452674D02*
X15680551Y-8462198D01*
X15680551Y-8462198D02*
X15690075Y-8481246D01*
X15690075Y-8481246D02*
X15690075Y-8538389D01*
X15690075Y-8538389D02*
X15680551Y-8557436D01*
X15680551Y-8557436D02*
X15671027Y-8566960D01*
X15671027Y-8566960D02*
X15651980Y-8576484D01*
X15651980Y-8576484D02*
X15623408Y-8576484D01*
X15804360Y-8576484D02*
X15785313Y-8566960D01*
X15785313Y-8566960D02*
X15775789Y-8547912D01*
X15775789Y-8547912D02*
X15775789Y-8376484D01*
X15956741Y-8566960D02*
X15937694Y-8576484D01*
X15937694Y-8576484D02*
X15899599Y-8576484D01*
X15899599Y-8576484D02*
X15880551Y-8566960D01*
X15880551Y-8566960D02*
X15871027Y-8547912D01*
X15871027Y-8547912D02*
X15871027Y-8471722D01*
X15871027Y-8471722D02*
X15880551Y-8452674D01*
X15880551Y-8452674D02*
X15899599Y-8443150D01*
X15899599Y-8443150D02*
X15937694Y-8443150D01*
X15937694Y-8443150D02*
X15956741Y-8452674D01*
X15956741Y-8452674D02*
X15966265Y-8471722D01*
X15966265Y-8471722D02*
X15966265Y-8490770D01*
X15966265Y-8490770D02*
X15871027Y-8509817D01*
X16042456Y-8566960D02*
X16061503Y-8576484D01*
X16061503Y-8576484D02*
X16099599Y-8576484D01*
X16099599Y-8576484D02*
X16118646Y-8566960D01*
X16118646Y-8566960D02*
X16128170Y-8547912D01*
X16128170Y-8547912D02*
X16128170Y-8538389D01*
X16128170Y-8538389D02*
X16118646Y-8519341D01*
X16118646Y-8519341D02*
X16099599Y-8509817D01*
X16099599Y-8509817D02*
X16071027Y-8509817D01*
X16071027Y-8509817D02*
X16051980Y-8500293D01*
X16051980Y-8500293D02*
X16042456Y-8481246D01*
X16042456Y-8481246D02*
X16042456Y-8471722D01*
X16042456Y-8471722D02*
X16051980Y-8452674D01*
X16051980Y-8452674D02*
X16071027Y-8443150D01*
X16071027Y-8443150D02*
X16099599Y-8443150D01*
X16099599Y-8443150D02*
X16118646Y-8452674D01*
X16194837Y-8652674D02*
X16204361Y-8643150D01*
X16204361Y-8643150D02*
X16223408Y-8614579D01*
X16223408Y-8614579D02*
X16232932Y-8595531D01*
X16232932Y-8595531D02*
X16242456Y-8566960D01*
X16242456Y-8566960D02*
X16251980Y-8519341D01*
X16251980Y-8519341D02*
X16251980Y-8481246D01*
X16251980Y-8481246D02*
X16242456Y-8433627D01*
X16242456Y-8433627D02*
X16232932Y-8405055D01*
X16232932Y-8405055D02*
X16223408Y-8386008D01*
X16223408Y-8386008D02*
X16204361Y-8357436D01*
X16204361Y-8357436D02*
X16194837Y-8347912D01*
M02*
