%TF.GenerationSoftware,KiCad,Pcbnew,7.0.6*%
%TF.CreationDate,2024-02-16T19:59:31+01:00*%
%TF.ProjectId,minitari,6d696e69-7461-4726-992e-6b696361645f,rev?*%
%TF.SameCoordinates,Original*%
%TF.FileFunction,Drillmap*%
%TF.FilePolarity,Positive*%
%FSLAX45Y45*%
G04 Gerber Fmt 4.5, Leading zero omitted, Abs format (unit mm)*
G04 Created by KiCad (PCBNEW 7.0.6) date 2024-02-16 19:59:31*
%MOMM*%
%LPD*%
G01*
G04 APERTURE LIST*
%ADD10C,0.100000*%
%ADD11C,0.200000*%
G04 APERTURE END LIST*
D10*
X11234298Y-6440000D02*
X12634298Y-6440000D01*
X12634298Y-7840000D01*
X11234298Y-7840000D01*
X11234298Y-6440000D01*
D11*
X11490074Y-8156484D02*
X11490074Y-7956484D01*
X11490074Y-7956484D02*
X11537693Y-7956484D01*
X11537693Y-7956484D02*
X11566265Y-7966008D01*
X11566265Y-7966008D02*
X11585312Y-7985055D01*
X11585312Y-7985055D02*
X11594836Y-8004103D01*
X11594836Y-8004103D02*
X11604360Y-8042198D01*
X11604360Y-8042198D02*
X11604360Y-8070769D01*
X11604360Y-8070769D02*
X11594836Y-8108865D01*
X11594836Y-8108865D02*
X11585312Y-8127912D01*
X11585312Y-8127912D02*
X11566265Y-8146960D01*
X11566265Y-8146960D02*
X11537693Y-8156484D01*
X11537693Y-8156484D02*
X11490074Y-8156484D01*
X11690074Y-8156484D02*
X11690074Y-8023150D01*
X11690074Y-8061246D02*
X11699598Y-8042198D01*
X11699598Y-8042198D02*
X11709122Y-8032674D01*
X11709122Y-8032674D02*
X11728170Y-8023150D01*
X11728170Y-8023150D02*
X11747217Y-8023150D01*
X11813884Y-8156484D02*
X11813884Y-8023150D01*
X11813884Y-7956484D02*
X11804360Y-7966008D01*
X11804360Y-7966008D02*
X11813884Y-7975531D01*
X11813884Y-7975531D02*
X11823408Y-7966008D01*
X11823408Y-7966008D02*
X11813884Y-7956484D01*
X11813884Y-7956484D02*
X11813884Y-7975531D01*
X11937693Y-8156484D02*
X11918646Y-8146960D01*
X11918646Y-8146960D02*
X11909122Y-8127912D01*
X11909122Y-8127912D02*
X11909122Y-7956484D01*
X12042455Y-8156484D02*
X12023408Y-8146960D01*
X12023408Y-8146960D02*
X12013884Y-8127912D01*
X12013884Y-8127912D02*
X12013884Y-7956484D01*
X12271027Y-8156484D02*
X12271027Y-7956484D01*
X12271027Y-7956484D02*
X12337693Y-8099341D01*
X12337693Y-8099341D02*
X12404360Y-7956484D01*
X12404360Y-7956484D02*
X12404360Y-8156484D01*
X12585312Y-8156484D02*
X12585312Y-8051722D01*
X12585312Y-8051722D02*
X12575789Y-8032674D01*
X12575789Y-8032674D02*
X12556741Y-8023150D01*
X12556741Y-8023150D02*
X12518646Y-8023150D01*
X12518646Y-8023150D02*
X12499598Y-8032674D01*
X12585312Y-8146960D02*
X12566265Y-8156484D01*
X12566265Y-8156484D02*
X12518646Y-8156484D01*
X12518646Y-8156484D02*
X12499598Y-8146960D01*
X12499598Y-8146960D02*
X12490074Y-8127912D01*
X12490074Y-8127912D02*
X12490074Y-8108865D01*
X12490074Y-8108865D02*
X12499598Y-8089817D01*
X12499598Y-8089817D02*
X12518646Y-8080293D01*
X12518646Y-8080293D02*
X12566265Y-8080293D01*
X12566265Y-8080293D02*
X12585312Y-8070769D01*
X12680551Y-8023150D02*
X12680551Y-8223150D01*
X12680551Y-8032674D02*
X12699598Y-8023150D01*
X12699598Y-8023150D02*
X12737693Y-8023150D01*
X12737693Y-8023150D02*
X12756741Y-8032674D01*
X12756741Y-8032674D02*
X12766265Y-8042198D01*
X12766265Y-8042198D02*
X12775789Y-8061246D01*
X12775789Y-8061246D02*
X12775789Y-8118388D01*
X12775789Y-8118388D02*
X12766265Y-8137436D01*
X12766265Y-8137436D02*
X12756741Y-8146960D01*
X12756741Y-8146960D02*
X12737693Y-8156484D01*
X12737693Y-8156484D02*
X12699598Y-8156484D01*
X12699598Y-8156484D02*
X12680551Y-8146960D01*
X12861503Y-8137436D02*
X12871027Y-8146960D01*
X12871027Y-8146960D02*
X12861503Y-8156484D01*
X12861503Y-8156484D02*
X12851979Y-8146960D01*
X12851979Y-8146960D02*
X12861503Y-8137436D01*
X12861503Y-8137436D02*
X12861503Y-8156484D01*
X12861503Y-8032674D02*
X12871027Y-8042198D01*
X12871027Y-8042198D02*
X12861503Y-8051722D01*
X12861503Y-8051722D02*
X12851979Y-8042198D01*
X12851979Y-8042198D02*
X12861503Y-8032674D01*
X12861503Y-8032674D02*
X12861503Y-8051722D01*
M02*
